<svg xmlns="http://www.w3.org/2000/svg" width="630" height="597" viewBox="0 0 630 597" fill="none"><circle cx="322" cy="250" r="250" fill="#F7661C"></circle><path d="M116.936 218H116.406C115.488 218 114.604 217.912 113.756 217.735C112.908 217.558 112.149 217.24 111.477 216.781C110.841 216.322 110.311 215.686 109.887 214.873C109.499 214.06 109.304 213 109.304 211.693V179.522H110.152C111 179.522 111.831 179.628 112.643 179.84C113.456 180.017 114.18 180.352 114.816 180.847C115.452 181.306 115.965 181.942 116.353 182.755C116.742 183.568 116.936 184.61 116.936 185.882V218ZM97.8563 184.769C97.8563 184.168 97.9623 183.568 98.1743 182.967C98.3863 182.366 98.722 181.819 99.1813 181.324C99.6406 180.829 100.206 180.441 100.877 180.158C101.549 179.84 102.344 179.681 103.262 179.681C104.216 179.681 105.029 179.858 105.7 180.211C106.372 180.529 106.902 180.935 107.29 181.43C107.714 181.889 108.015 182.402 108.191 182.967C108.403 183.497 108.509 183.974 108.509 184.398C108.509 184.681 108.492 184.946 108.456 185.193C108.456 185.405 108.403 185.652 108.297 185.935C107.803 185.511 107.237 185.299 106.601 185.299C106.071 185.299 105.63 185.476 105.276 185.829C104.923 186.147 104.746 186.642 104.746 187.313V189.91C104.464 189.981 104.11 190.016 103.686 190.016C103.192 190.016 102.609 189.963 101.937 189.857C101.266 189.716 100.63 189.451 100.029 189.062C99.4286 188.673 98.9163 188.143 98.4923 187.472C98.0683 186.801 97.8563 185.9 97.8563 184.769ZM128.437 184.769C128.437 185.9 128.225 186.801 127.801 187.472C127.377 188.143 126.865 188.673 126.264 189.062C125.664 189.451 125.028 189.716 124.356 189.857C123.685 189.963 123.102 190.016 122.607 190.016C122.183 190.016 121.83 189.981 121.547 189.91V187.472C121.547 186.73 121.371 186.182 121.017 185.829C120.664 185.476 120.222 185.299 119.692 185.299C119.021 185.299 118.456 185.511 117.996 185.935C117.89 185.652 117.82 185.405 117.784 185.193C117.784 184.946 117.784 184.681 117.784 184.398C117.784 183.974 117.873 183.497 118.049 182.967C118.261 182.402 118.562 181.889 118.95 181.43C119.374 180.935 119.904 180.529 120.54 180.211C121.212 179.858 122.007 179.681 122.925 179.681C123.879 179.681 124.692 179.84 125.363 180.158C126.07 180.476 126.635 180.882 127.059 181.377C127.519 181.836 127.854 182.384 128.066 183.02C128.314 183.621 128.437 184.204 128.437 184.769ZM131.083 179.522H131.666C133.503 179.522 135.04 180.017 136.277 181.006C137.549 181.995 138.185 183.568 138.185 185.723V218H137.867C137.054 218 136.241 217.894 135.429 217.682C134.651 217.47 133.927 217.134 133.256 216.675C132.62 216.18 132.09 215.562 131.666 214.82C131.277 214.043 131.083 213.089 131.083 211.958V179.522ZM143.167 199.344C143.167 198.92 143.131 198.514 143.061 198.125C143.025 197.736 142.919 197.401 142.743 197.118C142.601 196.8 142.372 196.553 142.054 196.376C141.771 196.164 141.365 196.058 140.835 196.058C140.552 196.058 140.252 196.111 139.934 196.217C139.651 196.288 139.386 196.429 139.139 196.641C138.997 196.358 138.909 196.093 138.874 195.846C138.838 195.563 138.821 195.281 138.821 194.998C138.821 193.867 139.298 192.931 140.252 192.189C141.206 191.447 142.354 191.076 143.697 191.076C145.817 191.076 147.442 191.624 148.573 192.719C149.703 193.779 150.269 195.316 150.269 197.33V218C149.456 218 148.626 217.912 147.778 217.735C146.965 217.523 146.205 217.187 145.499 216.728C144.827 216.233 144.262 215.597 143.803 214.82C143.379 214.007 143.167 212.983 143.167 211.746V199.344ZM162.149 218H161.619C160.806 218 160.011 217.912 159.234 217.735C158.456 217.523 157.75 217.187 157.114 216.728C156.513 216.233 156.018 215.597 155.63 214.82C155.241 214.043 155.047 213.089 155.047 211.958V197.701C155.047 195.758 155.506 194.168 156.425 192.931C157.379 191.694 158.916 191.076 161.036 191.076C162.449 191.076 163.615 191.447 164.534 192.189C165.452 192.896 165.912 194.044 165.912 195.634C165.912 196.164 165.841 196.553 165.7 196.8C165.205 196.376 164.675 196.164 164.11 196.164C163.332 196.164 162.802 196.429 162.52 196.959C162.272 197.489 162.149 198.054 162.149 198.655V218ZM166.866 191.129C167.042 191.094 167.219 191.076 167.396 191.076H167.926C169.834 191.076 171.318 191.571 172.378 192.56C173.438 193.514 173.968 194.892 173.968 196.694V199.609C173.968 202.012 173.367 203.796 172.166 204.962C170.964 206.128 169.498 206.711 167.767 206.711H167.396C166.053 206.64 164.958 206.199 164.11 205.386C163.297 204.538 162.891 203.531 162.891 202.365C162.891 202.188 162.891 202.029 162.891 201.888C162.926 201.747 162.997 201.535 163.103 201.252C163.385 201.535 163.633 201.747 163.845 201.888C164.057 202.029 164.41 202.1 164.905 202.1C165.717 202.1 166.247 201.817 166.495 201.252C166.742 200.651 166.866 199.962 166.866 199.185V191.129ZM173.756 212.859C173.756 213.848 173.579 214.679 173.226 215.35C172.908 215.986 172.484 216.516 171.954 216.94C171.424 217.329 170.841 217.611 170.205 217.788C169.569 217.929 168.95 218 168.35 218C166.548 218 165.276 217.558 164.534 216.675C163.792 215.792 163.421 214.802 163.421 213.707C163.421 213.53 163.421 213.318 163.421 213.071C163.456 212.824 163.544 212.559 163.686 212.276C164.145 212.7 164.675 212.912 165.276 212.912C166.124 212.841 166.618 212.559 166.76 212.064C166.901 211.569 166.972 210.951 166.972 210.209V208.248C167.502 208.107 168.138 208.036 168.88 208.036C169.798 208.036 170.558 208.177 171.159 208.46C171.795 208.743 172.307 209.114 172.696 209.573C173.084 210.032 173.349 210.562 173.491 211.163C173.667 211.728 173.756 212.294 173.756 212.859ZM201.831 188.373C201.831 187.984 201.795 187.596 201.725 187.207C201.689 186.783 201.583 186.412 201.407 186.094C201.265 185.741 201.036 185.458 200.718 185.246C200.435 185.034 200.029 184.928 199.499 184.928C198.827 184.928 198.262 185.14 197.803 185.564C197.591 184.999 197.485 184.486 197.485 184.027C197.485 183.462 197.573 182.914 197.75 182.384C197.962 181.819 198.28 181.324 198.704 180.9C199.128 180.476 199.658 180.14 200.294 179.893C200.965 179.61 201.778 179.469 202.732 179.469C204.852 179.469 206.495 180.105 207.661 181.377C208.827 182.649 209.41 184.398 209.41 186.624V218C208.456 218 207.519 217.929 206.601 217.788C205.717 217.647 204.905 217.364 204.163 216.94C203.456 216.481 202.891 215.809 202.467 214.926C202.043 214.043 201.831 212.859 201.831 211.375V188.373ZM196.69 218H196.16C195.241 218 194.358 217.912 193.51 217.735C192.662 217.558 191.902 217.24 191.231 216.781C190.595 216.322 190.065 215.686 189.641 214.873C189.252 214.06 189.058 213 189.058 211.693V179.522H189.906C190.754 179.522 191.584 179.628 192.397 179.84C193.209 180.017 193.934 180.352 194.57 180.847C195.206 181.306 195.718 181.942 196.107 182.755C196.495 183.568 196.69 184.61 196.69 185.882V218ZM214.551 188.373C214.551 187.984 214.515 187.596 214.445 187.207C214.409 186.783 214.303 186.412 214.127 186.094C213.985 185.741 213.756 185.458 213.438 185.246C213.155 185.034 212.749 184.928 212.219 184.928C211.547 184.928 210.982 185.14 210.523 185.564C210.311 184.999 210.205 184.486 210.205 184.027C210.205 183.462 210.293 182.914 210.47 182.384C210.682 181.819 211 181.324 211.424 180.9C211.848 180.476 212.378 180.14 213.014 179.893C213.685 179.61 214.498 179.469 215.452 179.469C217.572 179.469 219.215 180.105 220.381 181.377C221.547 182.649 222.13 184.398 222.13 186.624V218C221.176 218 220.239 217.929 219.321 217.788C218.437 217.647 217.625 217.364 216.883 216.94C216.176 216.481 215.611 215.809 215.187 214.926C214.763 214.043 214.551 212.859 214.551 211.375V188.373ZM239.229 199.344C239.229 198.92 239.194 198.514 239.123 198.125C239.088 197.736 238.982 197.401 238.805 197.118C238.664 196.8 238.434 196.553 238.116 196.376C237.834 196.164 237.427 196.058 236.897 196.058C236.615 196.058 236.314 196.111 235.996 196.217C235.714 196.288 235.449 196.429 235.201 196.641C235.06 196.358 234.972 196.093 234.936 195.846C234.901 195.563 234.883 195.281 234.883 194.998C234.883 193.867 235.36 192.931 236.314 192.189C237.268 191.447 238.417 191.076 239.759 191.076C241.879 191.076 243.505 191.624 244.635 192.719C245.766 193.779 246.331 195.316 246.331 197.33V218C245.519 218 244.688 217.912 243.84 217.735C243.028 217.523 242.268 217.187 241.561 216.728C240.89 216.233 240.325 215.597 239.865 214.82C239.441 214.007 239.229 212.983 239.229 211.746V199.344ZM234.247 209.732C234.247 210.156 234.265 210.562 234.3 210.951C234.371 211.34 234.477 211.693 234.618 212.011C234.795 212.294 235.025 212.541 235.307 212.753C235.625 212.93 236.049 213.018 236.579 213.018C236.862 213.018 237.145 212.983 237.427 212.912C237.745 212.806 238.028 212.647 238.275 212.435C238.417 212.718 238.505 213 238.54 213.283C238.576 213.53 238.593 213.795 238.593 214.078C238.593 215.209 238.116 216.145 237.162 216.887C236.208 217.629 235.06 218 233.717 218C231.597 218 229.972 217.435 228.841 216.304C227.711 215.173 227.145 213.76 227.145 212.064V197.33C227.145 196.164 227.357 195.192 227.781 194.415C228.241 193.602 228.806 192.949 229.477 192.454C230.184 191.959 230.944 191.606 231.756 191.394C232.604 191.182 233.435 191.076 234.247 191.076V209.732ZM250.844 182.914C250.844 181.713 251.268 180.706 252.116 179.893C252.964 179.045 253.971 178.621 255.137 178.621C256.303 178.621 257.292 179.045 258.105 179.893C258.953 180.706 259.377 181.713 259.377 182.914C259.377 184.115 258.953 185.122 258.105 185.935C257.292 186.748 256.303 187.154 255.137 187.154C253.971 187.154 252.964 186.748 252.116 185.935C251.268 185.122 250.844 184.115 250.844 182.914ZM251.639 191.076H252.222C254.059 191.076 255.596 191.571 256.833 192.56C258.105 193.549 258.741 195.122 258.741 197.277V218H258.423C257.61 218 256.798 217.894 255.985 217.682C255.208 217.47 254.483 217.134 253.812 216.675C253.176 216.18 252.646 215.562 252.222 214.82C251.833 214.043 251.639 213.089 251.639 211.958V191.076ZM276.236 199.344C276.236 198.92 276.201 198.514 276.13 198.125C276.095 197.736 275.989 197.401 275.812 197.118C275.671 196.8 275.441 196.553 275.123 196.376C274.84 196.164 274.434 196.058 273.904 196.058C273.621 196.058 273.321 196.111 273.003 196.217C272.72 196.288 272.455 196.429 272.208 196.641C272.067 196.358 271.978 196.093 271.943 195.846C271.908 195.563 271.89 195.281 271.89 194.998C271.89 193.867 272.402 192.931 273.427 192.189C274.452 191.447 275.759 191.076 277.349 191.076C279.257 191.076 280.723 191.659 281.748 192.825C282.808 193.956 283.338 195.634 283.338 197.86V218H283.02C280.9 218 279.239 217.505 278.038 216.516C276.837 215.491 276.236 213.866 276.236 211.64V199.344ZM264.152 191.076H264.735C266.572 191.076 268.109 191.571 269.346 192.56C270.618 193.549 271.254 195.122 271.254 197.277V218H270.936C270.123 218 269.311 217.894 268.498 217.682C267.721 217.47 266.996 217.134 266.325 216.675C265.689 216.18 265.159 215.562 264.735 214.82C264.346 214.043 264.152 213.089 264.152 211.958V191.076ZM311.454 188.373C311.454 187.984 311.418 187.596 311.348 187.207C311.312 186.783 311.206 186.412 311.03 186.094C310.888 185.741 310.659 185.458 310.341 185.246C310.058 185.034 309.652 184.928 309.122 184.928C308.45 184.928 307.885 185.14 307.426 185.564C307.214 184.999 307.108 184.486 307.108 184.027C307.108 183.462 307.196 182.914 307.373 182.384C307.585 181.819 307.903 181.324 308.327 180.9C308.751 180.476 309.281 180.14 309.917 179.893C310.588 179.61 311.401 179.469 312.355 179.469C314.475 179.469 316.118 180.105 317.284 181.377C318.45 182.649 319.033 184.398 319.033 186.624V211.375C319.033 212.859 318.821 214.043 318.397 214.926C317.973 215.809 317.39 216.481 316.648 216.94C315.941 217.364 315.128 217.647 314.21 217.788C313.326 217.929 312.408 218 311.454 218V188.373ZM306.26 209.043C306.26 209.432 306.277 209.838 306.313 210.262C306.383 210.651 306.489 211.022 306.631 211.375C306.807 211.693 307.037 211.958 307.32 212.17C307.638 212.382 308.062 212.488 308.592 212.488C309.228 212.488 309.793 212.276 310.288 211.852C310.394 212.135 310.464 212.4 310.5 212.647C310.57 212.859 310.606 213.106 310.606 213.389C310.606 213.954 310.5 214.52 310.288 215.085C310.111 215.615 309.811 216.092 309.387 216.516C308.963 216.94 308.415 217.293 307.744 217.576C307.108 217.823 306.313 217.947 305.359 217.947C303.239 217.947 301.596 217.311 300.43 216.039C299.264 214.767 298.681 213.018 298.681 210.792V186.041C298.681 184.557 298.893 183.373 299.317 182.49C299.741 181.607 300.306 180.953 301.013 180.529C301.755 180.07 302.567 179.769 303.451 179.628C304.369 179.487 305.306 179.416 306.26 179.416V209.043ZM331.19 218H330.607C329.688 218 328.822 217.859 328.01 217.576C327.232 217.293 326.543 216.905 325.943 216.41C325.377 215.915 324.918 215.315 324.565 214.608C324.247 213.901 324.088 213.124 324.088 212.276V186.2C324.088 184.893 324.247 183.815 324.565 182.967C324.918 182.084 325.377 181.395 325.943 180.9C326.543 180.405 327.232 180.052 328.01 179.84C328.787 179.628 329.635 179.522 330.554 179.522H331.19V218ZM343.274 211.004C343.274 213.442 342.708 215.226 341.578 216.357C340.447 217.452 338.822 218 336.702 218C335.359 218 334.211 217.629 333.257 216.887C332.303 216.145 331.826 215.209 331.826 214.078C331.826 213.477 331.949 212.93 332.197 212.435C332.656 212.824 333.204 213.018 333.84 213.018C334.546 213.018 335.112 212.735 335.536 212.17C335.96 211.605 336.172 210.739 336.172 209.573V198.92C336.172 198.143 336.013 197.489 335.695 196.959C335.412 196.429 334.864 196.129 334.052 196.058H333.84C333.204 196.058 332.638 196.252 332.144 196.641C332.002 196.358 331.914 196.093 331.879 195.846C331.843 195.563 331.826 195.281 331.826 194.998C331.826 193.867 332.303 192.931 333.257 192.189C334.211 191.447 335.359 191.076 336.702 191.076C338.822 191.076 340.447 191.624 341.578 192.719C342.708 193.814 343.274 195.21 343.274 196.906V211.004ZM349.589 191.076H350.225C352.097 191.076 353.634 191.571 354.836 192.56C356.072 193.514 356.691 195.086 356.691 197.277V218.848C356.691 220.049 356.496 221.056 356.108 221.869C355.754 222.682 355.277 223.335 354.677 223.83C354.076 224.36 353.387 224.731 352.61 224.943C351.832 225.155 351.037 225.261 350.225 225.261H349.589V191.076ZM348.794 182.914C348.794 181.713 349.218 180.706 350.066 179.893C350.914 179.045 351.921 178.621 353.087 178.621C354.253 178.621 355.242 179.045 356.055 179.893C356.903 180.706 357.327 181.713 357.327 182.914C357.327 184.115 356.903 185.122 356.055 185.935C355.242 186.748 354.253 187.154 353.087 187.154C351.921 187.154 350.914 186.748 350.066 185.935C349.218 185.122 348.794 184.115 348.794 182.914ZM341.427 227.169C341.427 226.074 341.639 225.173 342.063 224.466C342.487 223.795 342.999 223.265 343.6 222.876C344.2 222.487 344.836 222.222 345.508 222.081C346.179 221.975 346.762 221.922 347.257 221.922C347.681 221.922 348.034 221.957 348.317 222.028V224.466C348.317 225.208 348.493 225.756 348.847 226.109C349.2 226.462 349.642 226.639 350.172 226.639C350.808 226.639 351.373 226.427 351.868 226.003C351.974 226.286 352.027 226.533 352.027 226.745C352.062 226.992 352.08 227.257 352.08 227.54C352.08 227.964 351.974 228.441 351.762 228.971C351.585 229.536 351.285 230.049 350.861 230.508C350.472 231.003 349.942 231.409 349.271 231.727C348.635 232.08 347.857 232.257 346.939 232.257C345.985 232.257 345.172 232.098 344.501 231.78C343.794 231.462 343.229 231.056 342.805 230.561C342.345 230.102 342.01 229.572 341.798 228.971C341.55 228.37 341.427 227.77 341.427 227.169ZM369.18 218H368.65C367.837 218 367.042 217.912 366.265 217.735C365.488 217.523 364.781 217.187 364.145 216.728C363.544 216.233 363.05 215.597 362.661 214.82C362.272 214.043 362.078 213.089 362.078 211.958V197.701C362.078 195.758 362.537 194.168 363.456 192.931C364.41 191.694 365.947 191.076 368.067 191.076C369.48 191.076 370.646 191.447 371.565 192.189C372.484 192.896 372.943 194.044 372.943 195.634C372.943 196.164 372.872 196.553 372.731 196.8C372.236 196.376 371.706 196.164 371.141 196.164C370.364 196.164 369.834 196.429 369.551 196.959C369.304 197.489 369.18 198.054 369.18 198.655V218ZM373.897 191.129C374.074 191.094 374.25 191.076 374.427 191.076H374.957C376.865 191.076 378.349 191.571 379.409 192.56C380.469 193.514 380.999 194.892 380.999 196.694V199.609C380.999 202.012 380.398 203.796 379.197 204.962C377.996 206.128 376.529 206.711 374.798 206.711H374.427C373.084 206.64 371.989 206.199 371.141 205.386C370.328 204.538 369.922 203.531 369.922 202.365C369.922 202.188 369.922 202.029 369.922 201.888C369.957 201.747 370.028 201.535 370.134 201.252C370.417 201.535 370.664 201.747 370.876 201.888C371.088 202.029 371.441 202.1 371.936 202.1C372.749 202.1 373.279 201.817 373.526 201.252C373.773 200.651 373.897 199.962 373.897 199.185V191.129ZM380.787 212.859C380.787 213.848 380.61 214.679 380.257 215.35C379.939 215.986 379.515 216.516 378.985 216.94C378.455 217.329 377.872 217.611 377.236 217.788C376.6 217.929 375.982 218 375.381 218C373.579 218 372.307 217.558 371.565 216.675C370.823 215.792 370.452 214.802 370.452 213.707C370.452 213.53 370.452 213.318 370.452 213.071C370.487 212.824 370.576 212.559 370.717 212.276C371.176 212.7 371.706 212.912 372.307 212.912C373.155 212.841 373.65 212.559 373.791 212.064C373.932 211.569 374.003 210.951 374.003 210.209V208.248C374.533 208.107 375.169 208.036 375.911 208.036C376.83 208.036 377.589 208.177 378.19 208.46C378.826 208.743 379.338 209.114 379.727 209.573C380.116 210.032 380.381 210.562 380.522 211.163C380.699 211.728 380.787 212.294 380.787 212.859ZM392.626 218H392.149C391.336 218 390.524 217.912 389.711 217.735C388.934 217.523 388.227 217.187 387.591 216.728C386.99 216.233 386.496 215.597 386.107 214.82C385.718 214.043 385.524 213.089 385.524 211.958V197.33C385.524 196.058 385.736 195.016 386.16 194.203C386.584 193.39 387.132 192.754 387.803 192.295C388.474 191.836 389.234 191.518 390.082 191.341C390.93 191.164 391.778 191.076 392.626 191.076V218ZM404.339 196.323C404.339 196.853 404.251 197.401 404.074 197.966C403.933 198.531 403.668 199.044 403.279 199.503C402.89 199.962 402.378 200.333 401.742 200.616C401.141 200.899 400.382 201.04 399.463 201.04C398.721 201.04 398.085 200.969 397.555 200.828V199.026C397.555 198.249 397.414 197.595 397.131 197.065C396.848 196.535 396.301 196.235 395.488 196.164C395.099 196.164 394.764 196.235 394.481 196.376C394.234 196.482 393.986 196.623 393.739 196.8C393.492 196.305 393.368 195.74 393.368 195.104C393.368 194.044 393.827 193.108 394.746 192.295C395.665 191.482 396.937 191.076 398.562 191.076H398.933C399.534 191.111 400.152 191.235 400.788 191.447C401.424 191.659 402.007 191.977 402.537 192.401C403.067 192.825 403.491 193.373 403.809 194.044C404.162 194.68 404.339 195.44 404.339 196.323ZM404.339 212.859C404.339 213.707 404.162 214.449 403.809 215.085C403.491 215.721 403.067 216.251 402.537 216.675C402.007 217.099 401.424 217.417 400.788 217.629C400.152 217.841 399.534 217.965 398.933 218H398.562C396.937 218 395.665 217.594 394.746 216.781C393.827 215.968 393.368 215.032 393.368 213.972C393.368 213.336 393.492 212.771 393.739 212.276C394.198 212.7 394.728 212.912 395.329 212.912C396.212 212.841 396.795 212.541 397.078 212.011C397.396 211.481 397.555 210.827 397.555 210.05V208.248C398.085 208.107 398.721 208.036 399.463 208.036C400.382 208.036 401.141 208.177 401.742 208.46C402.378 208.743 402.89 209.114 403.279 209.573C403.668 210.032 403.933 210.562 404.074 211.163C404.251 211.728 404.339 212.294 404.339 212.859ZM415.71 209.891C415.71 210.244 415.71 210.615 415.71 211.004C415.745 211.393 415.816 211.746 415.922 212.064C416.063 212.382 416.258 212.647 416.505 212.859C416.752 213.071 417.106 213.177 417.565 213.177C418.13 213.177 418.554 213.036 418.837 212.753C419.155 212.435 419.385 212.17 419.526 211.958C419.597 212.17 419.65 212.488 419.685 212.912C419.756 213.336 419.791 213.689 419.791 213.972C419.791 215.315 419.332 216.322 418.413 216.993C417.53 217.664 416.346 218 414.862 218C412.919 218 411.382 217.399 410.251 216.198C409.156 214.997 408.608 213.018 408.608 210.262V185.935C408.608 185.052 408.714 184.221 408.926 183.444C409.173 182.667 409.544 181.995 410.039 181.43C410.534 180.829 411.17 180.37 411.947 180.052C412.76 179.699 413.731 179.522 414.862 179.522C415.003 179.522 415.145 179.54 415.286 179.575C415.427 179.575 415.569 179.575 415.71 179.575V209.891ZM416.611 191.341H416.717C416.788 191.341 416.947 191.341 417.194 191.341C417.441 191.306 417.83 191.288 418.36 191.288H420.745C420.78 191.394 420.798 191.659 420.798 192.083C420.798 193.426 420.48 194.486 419.844 195.263C419.208 196.005 418.13 196.376 416.611 196.376V191.341ZM423.612 182.914C423.612 181.713 424.036 180.706 424.884 179.893C425.732 179.045 426.739 178.621 427.905 178.621C429.071 178.621 430.06 179.045 430.873 179.893C431.721 180.706 432.145 181.713 432.145 182.914C432.145 184.115 431.721 185.122 430.873 185.935C430.06 186.748 429.071 187.154 427.905 187.154C426.739 187.154 425.732 186.748 424.884 185.935C424.036 185.122 423.612 184.115 423.612 182.914ZM424.407 191.076H424.99C426.827 191.076 428.364 191.571 429.601 192.56C430.873 193.549 431.509 195.122 431.509 197.277V218H431.191C430.378 218 429.565 217.894 428.753 217.682C427.975 217.47 427.251 217.134 426.58 216.675C425.944 216.18 425.414 215.562 424.99 214.82C424.601 214.043 424.407 213.089 424.407 211.958V191.076ZM444.022 209.626C444.022 210.05 444.039 210.456 444.075 210.845C444.145 211.234 444.251 211.587 444.393 211.905C444.569 212.188 444.799 212.435 445.082 212.647C445.4 212.824 445.824 212.912 446.354 212.912C446.636 212.912 446.919 212.877 447.202 212.806C447.52 212.7 447.802 212.541 448.05 212.329C448.191 212.612 448.279 212.894 448.315 213.177C448.35 213.424 448.368 213.689 448.368 213.972C448.368 215.103 447.855 216.039 446.831 216.781C445.806 217.523 444.499 217.894 442.909 217.894C441.001 217.894 439.517 217.329 438.457 216.198C437.432 215.032 436.92 213.336 436.92 211.11V191.129C437.096 191.094 437.255 191.076 437.397 191.076H437.874C439.782 191.076 441.283 191.588 442.379 192.613C443.474 193.638 444.022 195.21 444.022 197.33V209.626ZM449.004 197.171C449.004 196.076 449.198 195.139 449.587 194.362C449.975 193.585 450.488 192.949 451.124 192.454C451.76 191.959 452.484 191.606 453.297 191.394C454.109 191.182 454.94 191.076 455.788 191.076H456.106V205.863C456.106 208.725 455.505 210.757 454.304 211.958C453.102 213.159 451.336 213.76 449.004 213.76V197.171ZM467.986 218H467.456C466.643 218 465.848 217.912 465.071 217.735C464.293 217.523 463.587 217.187 462.951 216.728C462.35 216.233 461.855 215.597 461.467 214.82C461.078 214.043 460.884 213.089 460.884 211.958V197.701C460.884 195.758 461.343 194.168 462.262 192.931C463.216 191.694 464.753 191.076 466.873 191.076C468.286 191.076 469.452 191.447 470.371 192.189C471.289 192.896 471.749 194.044 471.749 195.634C471.749 196.164 471.678 196.553 471.537 196.8C471.042 196.376 470.512 196.164 469.947 196.164C469.169 196.164 468.639 196.429 468.357 196.959C468.109 197.489 467.986 198.054 467.986 198.655V218ZM472.703 191.129C472.879 191.094 473.056 191.076 473.233 191.076H473.763C475.671 191.076 477.155 191.571 478.215 192.56C479.275 193.514 479.805 194.892 479.805 196.694V199.609C479.805 202.012 479.204 203.796 478.003 204.962C476.801 206.128 475.335 206.711 473.604 206.711H473.233C471.89 206.64 470.795 206.199 469.947 205.386C469.134 204.538 468.728 203.531 468.728 202.365C468.728 202.188 468.728 202.029 468.728 201.888C468.763 201.747 468.834 201.535 468.94 201.252C469.222 201.535 469.47 201.747 469.682 201.888C469.894 202.029 470.247 202.1 470.742 202.1C471.554 202.1 472.084 201.817 472.332 201.252C472.579 200.651 472.703 199.962 472.703 199.185V191.129ZM479.593 212.859C479.593 213.848 479.416 214.679 479.063 215.35C478.745 215.986 478.321 216.516 477.791 216.94C477.261 217.329 476.678 217.611 476.042 217.788C475.406 217.929 474.787 218 474.187 218C472.385 218 471.113 217.558 470.371 216.675C469.629 215.792 469.258 214.802 469.258 213.707C469.258 213.53 469.258 213.318 469.258 213.071C469.293 212.824 469.381 212.559 469.523 212.276C469.982 212.7 470.512 212.912 471.113 212.912C471.961 212.841 472.455 212.559 472.597 212.064C472.738 211.569 472.809 210.951 472.809 210.209V208.248C473.339 208.107 473.975 208.036 474.717 208.036C475.635 208.036 476.395 208.177 476.996 208.46C477.632 208.743 478.144 209.114 478.533 209.573C478.921 210.032 479.186 210.562 479.328 211.163C479.504 211.728 479.593 212.294 479.593 212.859ZM501.732 209.732C501.732 210.156 501.749 210.562 501.785 210.951C501.855 211.34 501.961 211.693 502.103 212.011C502.279 212.294 502.509 212.541 502.792 212.753C503.11 212.93 503.534 213.018 504.064 213.018C504.346 213.018 504.629 212.983 504.912 212.912C505.23 212.806 505.512 212.647 505.76 212.435C505.901 212.718 505.989 213 506.025 213.283C506.06 213.53 506.078 213.795 506.078 214.078C506.078 215.209 505.601 216.145 504.647 216.887C503.693 217.629 502.544 218 501.202 218C499.082 218 497.456 217.435 496.326 216.304C495.195 215.173 494.63 213.76 494.63 212.064V197.33C494.63 196.164 494.842 195.192 495.266 194.415C495.725 193.602 496.29 192.949 496.962 192.454C497.668 191.959 498.428 191.606 499.241 191.394C500.089 191.182 500.919 191.076 501.732 191.076V209.732ZM513.816 211.746C513.816 212.983 513.586 214.007 513.127 214.82C512.703 215.597 512.137 216.233 511.431 216.728C510.759 217.187 510 217.523 509.152 217.735C508.304 217.912 507.491 218 506.714 218V199.344C506.714 198.92 506.678 198.514 506.608 198.125C506.572 197.736 506.466 197.401 506.29 197.118C506.148 196.8 505.919 196.553 505.601 196.376C505.318 196.164 504.912 196.058 504.382 196.058C504.099 196.058 503.799 196.111 503.481 196.217C503.198 196.288 502.933 196.429 502.686 196.641C502.544 196.358 502.456 196.093 502.421 195.846C502.385 195.563 502.368 195.281 502.368 194.998C502.368 193.867 502.845 192.931 503.799 192.189C504.753 191.447 505.901 191.076 507.244 191.076C509.364 191.076 510.989 191.624 512.12 192.719C513.25 193.779 513.816 195.316 513.816 197.33V211.746ZM526.755 191.288H531.472C531.472 192.101 531.402 192.843 531.26 193.514C531.154 194.185 530.925 194.786 530.571 195.316C530.253 195.811 529.812 196.199 529.246 196.482C528.681 196.765 527.957 196.906 527.073 196.906H526.755V191.288ZM518.593 190.97C518.593 189.698 518.752 188.638 519.07 187.79C519.424 186.942 519.883 186.271 520.448 185.776C521.049 185.246 521.756 184.875 522.568 184.663C523.381 184.416 524.247 184.292 525.165 184.292H525.695V212.276C525.695 213.124 525.519 213.901 525.165 214.608C524.847 215.315 524.388 215.915 523.787 216.41C523.222 216.905 522.533 217.293 521.72 217.576C520.943 217.859 520.095 218 519.176 218H518.593V190.97ZM533.751 182.437C533.751 183.108 533.645 183.762 533.433 184.398C533.257 184.999 532.974 185.529 532.585 185.988C532.197 186.447 531.684 186.818 531.048 187.101C530.412 187.384 529.67 187.525 528.822 187.525C528.08 187.525 527.444 187.454 526.914 187.313V185.511C526.914 184.734 526.773 184.062 526.49 183.497C526.243 182.932 525.748 182.649 525.006 182.649C524.724 182.649 524.494 182.684 524.317 182.755C524.141 182.826 523.911 182.949 523.628 183.126C523.558 182.914 523.505 182.684 523.469 182.437C523.469 182.19 523.469 181.819 523.469 181.324C523.505 180.935 523.611 180.529 523.787 180.105C523.999 179.646 524.3 179.239 524.688 178.886C525.077 178.497 525.572 178.179 526.172 177.932C526.808 177.685 527.568 177.561 528.451 177.561C529.971 177.561 531.225 178.02 532.214 178.939C533.239 179.858 533.751 181.024 533.751 182.437ZM89.6028 271H89.0728C88.1541 271 87.2708 270.912 86.4228 270.735C85.5748 270.558 84.8151 270.24 84.1438 269.781C83.5078 269.322 82.9778 268.686 82.5538 267.873C82.1651 267.06 81.9708 266 81.9708 264.693V238.882C81.9708 237.61 82.1651 236.568 82.5538 235.755C82.9425 234.942 83.4548 234.306 84.0908 233.847C84.7268 233.352 85.4511 233.017 86.2638 232.84C87.0765 232.628 87.9068 232.522 88.7548 232.522H89.6028V271ZM90.7158 248.952H95.4328C95.4328 249.765 95.3621 250.507 95.2208 251.178C95.1148 251.849 94.8851 252.45 94.5318 252.98C94.2138 253.475 93.7721 253.863 93.2068 254.146C92.6415 254.429 91.9171 254.57 91.0338 254.57H90.7158V248.952ZM101.21 237.557C101.21 238.688 100.998 239.589 100.574 240.26C100.15 240.931 99.6375 241.461 99.0368 241.85C98.4361 242.239 97.8001 242.504 97.1288 242.645C96.4575 242.751 95.8745 242.804 95.3798 242.804C94.9558 242.804 94.6025 242.769 94.3198 242.698V240.26C94.3198 239.624 94.1608 239.112 93.8428 238.723C93.5248 238.299 93.0655 238.087 92.4648 238.087C91.7935 238.087 91.2281 238.299 90.7688 238.723C90.6628 238.44 90.5921 238.193 90.5568 237.981C90.5568 237.734 90.5568 237.469 90.5568 237.186C90.5568 236.691 90.6451 236.161 90.8218 235.596C91.0338 235.031 91.3341 234.518 91.7228 234.059C92.1468 233.6 92.6768 233.229 93.3128 232.946C93.9841 232.628 94.7791 232.469 95.6978 232.469C96.4398 232.469 97.1465 232.593 97.8178 232.84C98.4891 233.087 99.0721 233.441 99.5668 233.9C100.061 234.359 100.45 234.907 100.733 235.543C101.051 236.144 101.21 236.815 101.21 237.557ZM110.96 262.732C110.96 263.156 110.978 263.562 111.013 263.951C111.084 264.34 111.19 264.693 111.331 265.011C111.508 265.294 111.737 265.541 112.02 265.753C112.338 265.93 112.762 266.018 113.292 266.018C113.575 266.018 113.857 265.983 114.14 265.912C114.458 265.806 114.741 265.647 114.988 265.435C115.129 265.718 115.218 266 115.253 266.283C115.288 266.53 115.306 266.795 115.306 267.078C115.306 268.209 114.829 269.145 113.875 269.887C112.921 270.629 111.773 271 110.43 271C108.31 271 106.685 270.435 105.554 269.304C104.423 268.173 103.858 266.76 103.858 265.064V250.33C103.858 249.164 104.07 248.192 104.494 247.415C104.953 246.602 105.519 245.949 106.19 245.454C106.897 244.959 107.656 244.606 108.469 244.394C109.317 244.182 110.147 244.076 110.96 244.076V262.732ZM123.044 264.746C123.044 265.983 122.814 267.007 122.355 267.82C121.931 268.597 121.366 269.233 120.659 269.728C119.988 270.187 119.228 270.523 118.38 270.735C117.532 270.912 116.719 271 115.942 271V252.344C115.942 251.92 115.907 251.514 115.836 251.125C115.801 250.736 115.695 250.401 115.518 250.118C115.377 249.8 115.147 249.553 114.829 249.376C114.546 249.164 114.14 249.058 113.61 249.058C113.327 249.058 113.027 249.111 112.709 249.217C112.426 249.288 112.161 249.429 111.914 249.641C111.773 249.358 111.684 249.093 111.649 248.846C111.614 248.563 111.596 248.281 111.596 247.998C111.596 246.867 112.073 245.931 113.027 245.189C113.981 244.447 115.129 244.076 116.472 244.076C118.592 244.076 120.217 244.624 121.348 245.719C122.479 246.779 123.044 248.316 123.044 250.33V264.746ZM134.924 262.626C134.924 263.05 134.942 263.456 134.977 263.845C135.048 264.234 135.154 264.587 135.295 264.905C135.472 265.188 135.701 265.435 135.984 265.647C136.302 265.824 136.726 265.912 137.256 265.912C137.539 265.912 137.821 265.877 138.104 265.806C138.422 265.7 138.705 265.541 138.952 265.329C139.093 265.612 139.182 265.894 139.217 266.177C139.252 266.424 139.27 266.689 139.27 266.972C139.27 268.103 138.811 269.057 137.892 269.834C136.973 270.611 135.719 271 134.129 271C132.221 271 130.684 270.435 129.518 269.304C128.387 268.173 127.822 266.442 127.822 264.11V244.129H128.14C130.26 244.129 131.921 244.641 133.122 245.666C134.323 246.655 134.924 248.263 134.924 250.489V262.626ZM147.008 270.894H146.425C144.588 270.894 143.033 270.417 141.761 269.463C140.524 268.474 139.906 266.884 139.906 264.693V244.129H140.224C141.001 244.129 141.796 244.235 142.609 244.447C143.422 244.659 144.146 245.012 144.782 245.507C145.453 245.966 145.983 246.585 146.372 247.362C146.796 248.139 147.008 249.076 147.008 250.171V270.894ZM163.87 252.344C163.87 251.92 163.835 251.514 163.764 251.125C163.729 250.736 163.623 250.401 163.446 250.118C163.305 249.8 163.075 249.553 162.757 249.376C162.474 249.164 162.068 249.058 161.538 249.058C161.255 249.058 160.955 249.111 160.637 249.217C160.354 249.288 160.089 249.429 159.842 249.641C159.701 249.358 159.612 249.093 159.577 248.846C159.542 248.563 159.524 248.281 159.524 247.998C159.524 246.867 160.036 245.931 161.061 245.189C162.086 244.447 163.393 244.076 164.983 244.076C166.891 244.076 168.357 244.659 169.382 245.825C170.442 246.956 170.972 248.634 170.972 250.86V271H170.654C168.534 271 166.873 270.505 165.672 269.516C164.471 268.491 163.87 266.866 163.87 264.64V252.344ZM151.786 244.076H152.369C154.206 244.076 155.743 244.571 156.98 245.56C158.252 246.549 158.888 248.122 158.888 250.277V271H158.57C157.757 271 156.945 270.894 156.132 270.682C155.355 270.47 154.63 270.134 153.959 269.675C153.323 269.18 152.793 268.562 152.369 267.82C151.98 267.043 151.786 266.089 151.786 264.958V244.076ZM187.834 232.522H188.47C189.353 232.522 190.183 232.628 190.961 232.84C191.773 233.052 192.462 233.405 193.028 233.9C193.628 234.395 194.088 235.084 194.406 235.967C194.759 236.815 194.936 237.893 194.936 239.2V265.276C194.936 266.124 194.759 266.901 194.406 267.608C194.088 268.315 193.628 268.915 193.028 269.41C192.462 269.905 191.773 270.293 190.961 270.576C190.183 270.859 189.335 271 188.417 271H187.834V232.522ZM175.75 249.906C175.75 248.21 176.315 246.814 177.446 245.719C178.576 244.624 180.202 244.076 182.322 244.076C183.664 244.076 184.813 244.447 185.767 245.189C186.721 245.931 187.198 246.867 187.198 247.998C187.198 248.281 187.18 248.563 187.145 248.846C187.109 249.093 187.021 249.358 186.88 249.641C186.385 249.252 185.82 249.058 185.184 249.058H184.972C184.159 249.129 183.594 249.429 183.276 249.959C182.993 250.489 182.852 251.143 182.852 251.92V262.573C182.852 263.739 183.064 264.605 183.488 265.17C183.912 265.735 184.477 266.018 185.184 266.018C185.82 266.018 186.367 265.824 186.827 265.435C187.074 265.93 187.198 266.477 187.198 267.078C187.198 268.209 186.721 269.145 185.767 269.887C184.813 270.629 183.664 271 182.322 271C180.202 271 178.576 270.452 177.446 269.357C176.315 268.226 175.75 266.442 175.75 264.004V249.906ZM211.798 252.344C211.798 251.92 211.762 251.514 211.692 251.125C211.656 250.736 211.55 250.401 211.374 250.118C211.232 249.8 211.003 249.553 210.685 249.376C210.402 249.164 209.996 249.058 209.466 249.058C209.183 249.058 208.883 249.111 208.565 249.217C208.282 249.288 208.017 249.429 207.77 249.641C207.628 249.358 207.54 249.093 207.505 248.846C207.469 248.563 207.452 248.281 207.452 247.998C207.452 246.867 207.929 245.931 208.883 245.189C209.837 244.447 210.985 244.076 212.328 244.076C214.448 244.076 216.073 244.624 217.204 245.719C218.334 246.779 218.9 248.316 218.9 250.33V271C218.087 271 217.257 270.912 216.409 270.735C215.596 270.523 214.836 270.187 214.13 269.728C213.458 269.233 212.893 268.597 212.434 267.82C212.01 267.007 211.798 265.983 211.798 264.746V252.344ZM206.816 262.732C206.816 263.156 206.833 263.562 206.869 263.951C206.939 264.34 207.045 264.693 207.187 265.011C207.363 265.294 207.593 265.541 207.876 265.753C208.194 265.93 208.618 266.018 209.148 266.018C209.43 266.018 209.713 265.983 209.996 265.912C210.314 265.806 210.596 265.647 210.844 265.435C210.985 265.718 211.073 266 211.109 266.283C211.144 266.53 211.162 266.795 211.162 267.078C211.162 268.209 210.685 269.145 209.731 269.887C208.777 270.629 207.628 271 206.286 271C204.166 271 202.54 270.435 201.41 269.304C200.279 268.173 199.714 266.76 199.714 265.064V250.33C199.714 249.164 199.926 248.192 200.35 247.415C200.809 246.602 201.374 245.949 202.046 245.454C202.752 244.959 203.512 244.606 204.325 244.394C205.173 244.182 206.003 244.076 206.816 244.076V262.732ZM230.779 262.891C230.779 263.244 230.779 263.615 230.779 264.004C230.815 264.393 230.885 264.746 230.991 265.064C231.133 265.382 231.327 265.647 231.574 265.859C231.822 266.071 232.175 266.177 232.634 266.177C233.2 266.177 233.624 266.036 233.906 265.753C234.224 265.435 234.454 265.17 234.595 264.958C234.666 265.17 234.719 265.488 234.754 265.912C234.825 266.336 234.86 266.689 234.86 266.972C234.86 268.315 234.401 269.322 233.482 269.993C232.599 270.664 231.415 271 229.931 271C227.988 271 226.451 270.399 225.32 269.198C224.225 267.997 223.677 266.018 223.677 263.262V238.935C223.677 238.052 223.783 237.221 223.995 236.444C224.243 235.667 224.614 234.995 225.108 234.43C225.603 233.829 226.239 233.37 227.016 233.052C227.829 232.699 228.801 232.522 229.931 232.522C230.073 232.522 230.214 232.54 230.355 232.575C230.497 232.575 230.638 232.575 230.779 232.575V262.891ZM231.68 244.341H231.786C231.857 244.341 232.016 244.341 232.263 244.341C232.511 244.306 232.899 244.288 233.429 244.288H235.814C235.85 244.394 235.867 244.659 235.867 245.083C235.867 246.426 235.549 247.486 234.913 248.263C234.277 249.005 233.2 249.376 231.68 249.376V244.341ZM238.681 235.914C238.681 234.713 239.105 233.706 239.953 232.893C240.801 232.045 241.808 231.621 242.974 231.621C244.14 231.621 245.129 232.045 245.942 232.893C246.79 233.706 247.214 234.713 247.214 235.914C247.214 237.115 246.79 238.122 245.942 238.935C245.129 239.748 244.14 240.154 242.974 240.154C241.808 240.154 240.801 239.748 239.953 238.935C239.105 238.122 238.681 237.115 238.681 235.914ZM239.476 244.076H240.059C241.896 244.076 243.433 244.571 244.67 245.56C245.942 246.549 246.578 248.122 246.578 250.277V271H246.26C245.447 271 244.635 270.894 243.822 270.682C243.045 270.47 242.32 270.134 241.649 269.675C241.013 269.18 240.483 268.562 240.059 267.82C239.67 267.043 239.476 266.089 239.476 264.958V244.076ZM259.091 262.732C259.091 263.156 259.109 263.562 259.144 263.951C259.215 264.34 259.321 264.693 259.462 265.011C259.639 265.294 259.868 265.541 260.151 265.753C260.469 265.93 260.893 266.018 261.423 266.018C261.706 266.018 261.988 265.983 262.271 265.912C262.589 265.806 262.872 265.647 263.119 265.435C263.26 265.718 263.349 266 263.384 266.283C263.419 266.53 263.437 266.795 263.437 267.078C263.437 268.209 262.96 269.145 262.006 269.887C261.052 270.629 259.904 271 258.561 271C256.441 271 254.816 270.435 253.685 269.304C252.554 268.173 251.989 266.76 251.989 265.064V250.33C251.989 249.164 252.201 248.192 252.625 247.415C253.084 246.602 253.65 245.949 254.321 245.454C255.028 244.959 255.787 244.606 256.6 244.394C257.448 244.182 258.278 244.076 259.091 244.076V262.732ZM271.175 264.746C271.175 265.983 270.945 267.007 270.486 267.82C270.062 268.597 269.497 269.233 268.79 269.728C268.119 270.187 267.359 270.523 266.511 270.735C265.663 270.912 264.85 271 264.073 271V252.344C264.073 251.92 264.038 251.514 263.967 251.125C263.932 250.736 263.826 250.401 263.649 250.118C263.508 249.8 263.278 249.553 262.96 249.376C262.677 249.164 262.271 249.058 261.741 249.058C261.458 249.058 261.158 249.111 260.84 249.217C260.557 249.288 260.292 249.429 260.045 249.641C259.904 249.358 259.815 249.093 259.78 248.846C259.745 248.563 259.727 248.281 259.727 247.998C259.727 246.867 260.204 245.931 261.158 245.189C262.112 244.447 263.26 244.076 264.603 244.076C266.723 244.076 268.348 244.624 269.479 245.719C270.61 246.779 271.175 248.316 271.175 250.33V264.746ZM288.037 252.344C288.037 251.92 288.002 251.514 287.931 251.125C287.896 250.736 287.79 250.401 287.613 250.118C287.472 249.8 287.242 249.553 286.924 249.376C286.641 249.164 286.235 249.058 285.705 249.058C285.422 249.058 285.122 249.111 284.804 249.217C284.521 249.288 284.256 249.429 284.009 249.641C283.868 249.358 283.779 249.093 283.744 248.846C283.709 248.563 283.691 248.281 283.691 247.998C283.691 246.867 284.203 245.931 285.228 245.189C286.253 244.447 287.56 244.076 289.15 244.076C291.058 244.076 292.524 244.659 293.549 245.825C294.609 246.956 295.139 248.634 295.139 250.86V271H294.821C292.701 271 291.04 270.505 289.839 269.516C288.638 268.491 288.037 266.866 288.037 264.64V252.344ZM275.953 244.076H276.536C278.373 244.076 279.91 244.571 281.147 245.56C282.419 246.549 283.055 248.122 283.055 250.277V271H282.737C281.924 271 281.112 270.894 280.299 270.682C279.522 270.47 278.797 270.134 278.126 269.675C277.49 269.18 276.96 268.562 276.536 267.82C276.147 267.043 275.953 266.089 275.953 264.958V244.076ZM318.114 271H317.584C316.665 271 315.782 270.912 314.934 270.735C314.086 270.558 313.326 270.24 312.655 269.781C312.019 269.322 311.489 268.686 311.065 267.873C310.676 267.06 310.482 266 310.482 264.693V238.882C310.482 237.61 310.676 236.568 311.065 235.755C311.453 234.942 311.966 234.306 312.602 233.847C313.238 233.352 313.962 233.017 314.775 232.84C315.587 232.628 316.418 232.522 317.266 232.522H318.114V271ZM329.721 265.912C329.721 266.513 329.615 267.113 329.403 267.714C329.191 268.315 328.855 268.862 328.396 269.357C327.936 269.816 327.371 270.205 326.7 270.523C326.028 270.841 325.233 271 324.315 271C322.831 271 321.576 270.594 320.552 269.781C319.562 268.933 319.068 267.767 319.068 266.283C319.068 266 319.068 265.753 319.068 265.541C319.103 265.294 319.174 265.029 319.28 264.746C319.739 265.17 320.304 265.382 320.976 265.382C321.506 265.382 321.947 265.223 322.301 264.905C322.654 264.552 322.831 264.039 322.831 263.368V260.771C323.113 260.7 323.467 260.665 323.891 260.665C324.385 260.665 324.968 260.736 325.64 260.877C326.311 260.983 326.947 261.23 327.548 261.619C328.148 262.008 328.661 262.555 329.085 263.262C329.509 263.933 329.721 264.817 329.721 265.912ZM329.721 237.557C329.721 238.688 329.509 239.589 329.085 240.26C328.661 240.931 328.148 241.461 327.548 241.85C326.947 242.239 326.311 242.504 325.64 242.645C324.968 242.751 324.385 242.804 323.891 242.804C323.467 242.804 323.113 242.769 322.831 242.698V240.26C322.831 239.624 322.672 239.112 322.354 238.723C322.036 238.299 321.576 238.087 320.976 238.087C320.304 238.087 319.739 238.299 319.28 238.723C319.174 238.44 319.103 238.193 319.068 237.981C319.068 237.734 319.068 237.469 319.068 237.186C319.068 236.762 319.138 236.285 319.28 235.755C319.456 235.19 319.739 234.677 320.128 234.218C320.516 233.723 321.029 233.317 321.665 232.999C322.336 232.646 323.184 232.469 324.209 232.469C324.951 232.469 325.657 232.593 326.329 232.84C327 233.087 327.583 233.441 328.078 233.9C328.572 234.359 328.961 234.907 329.244 235.543C329.562 236.144 329.721 236.815 329.721 237.557ZM340.558 262.732C340.558 263.156 340.575 263.562 340.611 263.951C340.681 264.34 340.787 264.693 340.929 265.011C341.105 265.294 341.335 265.541 341.618 265.753C341.936 265.93 342.36 266.018 342.89 266.018C343.172 266.018 343.455 265.983 343.738 265.912C344.056 265.806 344.338 265.647 344.586 265.435C344.727 265.718 344.815 266 344.851 266.283C344.886 266.53 344.904 266.795 344.904 267.078C344.904 268.209 344.427 269.145 343.473 269.887C342.519 270.629 341.37 271 340.028 271C337.908 271 336.282 270.435 335.152 269.304C334.021 268.173 333.456 266.76 333.456 265.064V250.33C333.456 249.164 333.668 248.192 334.092 247.415C334.551 246.602 335.116 245.949 335.788 245.454C336.494 244.959 337.254 244.606 338.067 244.394C338.915 244.182 339.745 244.076 340.558 244.076V262.732ZM352.642 264.746C352.642 265.983 352.412 267.007 351.953 267.82C351.529 268.597 350.963 269.233 350.257 269.728C349.585 270.187 348.826 270.523 347.978 270.735C347.13 270.912 346.317 271 345.54 271V252.344C345.54 251.92 345.504 251.514 345.434 251.125C345.398 250.736 345.292 250.401 345.116 250.118C344.974 249.8 344.745 249.553 344.427 249.376C344.144 249.164 343.738 249.058 343.208 249.058C342.925 249.058 342.625 249.111 342.307 249.217C342.024 249.288 341.759 249.429 341.512 249.641C341.37 249.358 341.282 249.093 341.247 248.846C341.211 248.563 341.194 248.281 341.194 247.998C341.194 246.867 341.671 245.931 342.625 245.189C343.579 244.447 344.727 244.076 346.07 244.076C348.19 244.076 349.815 244.624 350.946 245.719C352.076 246.779 352.642 248.316 352.642 250.33V264.746ZM364.522 262.626C364.522 263.05 364.539 263.456 364.575 263.845C364.645 264.234 364.751 264.587 364.893 264.905C365.069 265.188 365.299 265.435 365.582 265.647C365.9 265.824 366.324 265.912 366.854 265.912C367.136 265.912 367.419 265.877 367.702 265.806C368.02 265.7 368.302 265.541 368.55 265.329C368.691 265.612 368.779 265.894 368.815 266.177C368.85 266.424 368.868 266.689 368.868 266.972C368.868 268.103 368.408 269.057 367.49 269.834C366.571 270.611 365.317 271 363.727 271C361.819 271 360.282 270.435 359.116 269.304C357.985 268.173 357.42 266.442 357.42 264.11V244.129H357.738C359.858 244.129 361.518 244.641 362.72 245.666C363.921 246.655 364.522 248.263 364.522 250.489V262.626ZM376.606 270.894H376.023C374.185 270.894 372.631 270.417 371.359 269.463C370.122 268.474 369.504 266.884 369.504 264.693V244.129H369.822C370.599 244.129 371.394 244.235 372.207 244.447C373.019 244.659 373.744 245.012 374.38 245.507C375.051 245.966 375.581 246.585 375.97 247.362C376.394 248.139 376.606 249.076 376.606 250.171V270.894ZM381.384 244.076H381.967C383.804 244.076 385.341 244.571 386.578 245.56C387.85 246.549 388.486 248.122 388.486 250.277V271H388.168C387.355 271 386.542 270.894 385.73 270.682C384.952 270.47 384.228 270.134 383.557 269.675C382.921 269.18 382.391 268.562 381.967 267.82C381.578 267.043 381.384 266.089 381.384 264.958V244.076ZM398.927 248.74C398.927 249.729 398.732 250.524 398.344 251.125C397.955 251.726 397.478 252.203 396.913 252.556C396.383 252.874 395.8 253.086 395.164 253.192C394.528 253.298 393.98 253.351 393.521 253.351C393.026 253.351 392.602 253.316 392.249 253.245V251.337C392.249 250.524 392.107 250.012 391.825 249.8C391.577 249.588 391.259 249.482 390.871 249.482C390.517 249.482 390.235 249.553 390.023 249.694C389.846 249.835 389.634 250.047 389.387 250.33C389.281 250.047 389.21 249.765 389.175 249.482C389.175 249.164 389.175 248.864 389.175 248.581C389.175 248.122 389.245 247.627 389.387 247.097C389.563 246.567 389.828 246.09 390.182 245.666C390.57 245.207 391.065 244.836 391.666 244.553C392.266 244.235 393.026 244.076 393.945 244.076C395.641 244.076 396.895 244.535 397.708 245.454C398.52 246.337 398.927 247.433 398.927 248.74ZM408.193 257.75H407.716C406.903 257.75 406.091 257.662 405.278 257.485C404.501 257.273 403.794 256.937 403.158 256.478C402.557 255.983 402.063 255.347 401.674 254.57C401.285 253.793 401.091 252.839 401.091 251.708V250.33C401.091 249.058 401.303 248.016 401.727 247.203C402.151 246.39 402.699 245.754 403.37 245.295C404.041 244.836 404.801 244.518 405.649 244.341C406.497 244.164 407.345 244.076 408.193 244.076V257.75ZM412.698 257.326H413.175C413.988 257.326 414.783 257.432 415.56 257.644C416.373 257.821 417.079 258.156 417.68 258.651C418.316 259.11 418.828 259.729 419.217 260.506C419.606 261.283 419.8 262.237 419.8 263.368V264.746C419.8 266.018 419.588 267.06 419.164 267.873C418.74 268.686 418.192 269.322 417.521 269.781C416.85 270.24 416.09 270.558 415.242 270.735C414.394 270.912 413.546 271 412.698 271V257.326ZM419.588 248.74C419.588 249.871 419.376 250.772 418.952 251.443C418.528 252.114 418.016 252.644 417.415 253.033C416.814 253.422 416.178 253.687 415.507 253.828C414.836 253.934 414.253 253.987 413.758 253.987C413.334 253.987 412.981 253.952 412.698 253.881V251.443C412.698 250.701 412.521 250.153 412.168 249.8C411.815 249.447 411.373 249.27 410.843 249.27C410.172 249.27 409.606 249.482 409.147 249.906C409.041 249.623 408.97 249.376 408.935 249.164C408.935 248.917 408.935 248.652 408.935 248.369C408.935 247.945 409.006 247.468 409.147 246.938C409.288 246.373 409.553 245.86 409.942 245.401C410.331 244.906 410.861 244.5 411.532 244.182C412.203 243.829 413.051 243.652 414.076 243.652C415.03 243.652 415.843 243.811 416.514 244.129C417.221 244.412 417.786 244.8 418.21 245.295C418.669 245.79 419.005 246.337 419.217 246.938C419.464 247.539 419.588 248.139 419.588 248.74ZM401.356 265.912C401.356 264.817 401.568 263.933 401.992 263.262C402.416 262.555 402.928 262.008 403.529 261.619C404.13 261.23 404.766 260.983 405.437 260.877C406.108 260.736 406.691 260.665 407.186 260.665C407.61 260.665 407.963 260.7 408.246 260.771V263.209C408.246 263.951 408.423 264.499 408.776 264.852C409.129 265.205 409.571 265.382 410.101 265.382C410.737 265.382 411.302 265.17 411.797 264.746C411.903 265.029 411.956 265.294 411.956 265.541C411.991 265.753 412.009 266 412.009 266.283C412.009 266.707 411.921 267.202 411.744 267.767C411.603 268.297 411.32 268.809 410.896 269.304C410.507 269.763 409.977 270.17 409.306 270.523C408.67 270.841 407.857 271 406.868 271C405.914 271 405.084 270.859 404.377 270.576C403.706 270.258 403.14 269.852 402.681 269.357C402.257 268.862 401.921 268.315 401.674 267.714C401.462 267.113 401.356 266.513 401.356 265.912ZM431.134 271H430.604C429.791 271 428.996 270.912 428.219 270.735C427.442 270.523 426.735 270.187 426.099 269.728C425.498 269.233 425.004 268.597 424.615 267.82C424.226 267.043 424.032 266.089 424.032 264.958V250.701C424.032 248.758 424.491 247.168 425.41 245.931C426.364 244.694 427.901 244.076 430.021 244.076C431.434 244.076 432.6 244.447 433.519 245.189C434.438 245.896 434.897 247.044 434.897 248.634C434.897 249.164 434.826 249.553 434.685 249.8C434.19 249.376 433.66 249.164 433.095 249.164C432.318 249.164 431.788 249.429 431.505 249.959C431.258 250.489 431.134 251.054 431.134 251.655V271ZM435.851 244.129C436.028 244.094 436.204 244.076 436.381 244.076H436.911C438.819 244.076 440.303 244.571 441.363 245.56C442.423 246.514 442.953 247.892 442.953 249.694V252.609C442.953 255.012 442.352 256.796 441.151 257.962C439.95 259.128 438.483 259.711 436.752 259.711H436.381C435.038 259.64 433.943 259.199 433.095 258.386C432.282 257.538 431.876 256.531 431.876 255.365C431.876 255.188 431.876 255.029 431.876 254.888C431.911 254.747 431.982 254.535 432.088 254.252C432.371 254.535 432.618 254.747 432.83 254.888C433.042 255.029 433.395 255.1 433.89 255.1C434.703 255.1 435.233 254.817 435.48 254.252C435.727 253.651 435.851 252.962 435.851 252.185V244.129ZM442.741 265.859C442.741 266.848 442.564 267.679 442.211 268.35C441.893 268.986 441.469 269.516 440.939 269.94C440.409 270.329 439.826 270.611 439.19 270.788C438.554 270.929 437.936 271 437.335 271C435.533 271 434.261 270.558 433.519 269.675C432.777 268.792 432.406 267.802 432.406 266.707C432.406 266.53 432.406 266.318 432.406 266.071C432.441 265.824 432.53 265.559 432.671 265.276C433.13 265.7 433.66 265.912 434.261 265.912C435.109 265.841 435.604 265.559 435.745 265.064C435.886 264.569 435.957 263.951 435.957 263.209V261.248C436.487 261.107 437.123 261.036 437.865 261.036C438.784 261.036 439.543 261.177 440.144 261.46C440.78 261.743 441.292 262.114 441.681 262.573C442.07 263.032 442.335 263.562 442.476 264.163C442.653 264.728 442.741 265.294 442.741 265.859ZM467.813 235.914C467.813 234.713 468.237 233.706 469.085 232.893C469.933 232.045 470.94 231.621 472.106 231.621C473.272 231.621 474.261 232.045 475.074 232.893C475.922 233.706 476.346 234.713 476.346 235.914C476.346 237.115 475.922 238.122 475.074 238.935C474.261 239.748 473.272 240.154 472.106 240.154C470.94 240.154 469.933 239.748 469.085 238.935C468.237 238.122 467.813 237.115 467.813 235.914ZM468.608 244.076H469.191C471.028 244.076 472.565 244.571 473.802 245.56C475.074 246.549 475.71 248.122 475.71 250.277V271H475.392C474.579 271 473.767 270.894 472.954 270.682C472.177 270.47 471.452 270.134 470.781 269.675C470.145 269.18 469.615 268.562 469.191 267.82C468.802 267.043 468.608 266.089 468.608 264.958V244.076ZM487.693 257.75H487.216C486.403 257.75 485.591 257.662 484.778 257.485C484.001 257.273 483.294 256.937 482.658 256.478C482.057 255.983 481.563 255.347 481.174 254.57C480.785 253.793 480.591 252.839 480.591 251.708V250.33C480.591 249.058 480.803 248.016 481.227 247.203C481.651 246.39 482.199 245.754 482.87 245.295C483.541 244.836 484.301 244.518 485.149 244.341C485.997 244.164 486.845 244.076 487.693 244.076V257.75ZM492.198 257.326H492.675C493.488 257.326 494.283 257.432 495.06 257.644C495.873 257.821 496.579 258.156 497.18 258.651C497.816 259.11 498.328 259.729 498.717 260.506C499.106 261.283 499.3 262.237 499.3 263.368V264.746C499.3 266.018 499.088 267.06 498.664 267.873C498.24 268.686 497.692 269.322 497.021 269.781C496.35 270.24 495.59 270.558 494.742 270.735C493.894 270.912 493.046 271 492.198 271V257.326ZM499.088 248.74C499.088 249.871 498.876 250.772 498.452 251.443C498.028 252.114 497.516 252.644 496.915 253.033C496.314 253.422 495.678 253.687 495.007 253.828C494.336 253.934 493.753 253.987 493.258 253.987C492.834 253.987 492.481 253.952 492.198 253.881V251.443C492.198 250.701 492.021 250.153 491.668 249.8C491.315 249.447 490.873 249.27 490.343 249.27C489.672 249.27 489.106 249.482 488.647 249.906C488.541 249.623 488.47 249.376 488.435 249.164C488.435 248.917 488.435 248.652 488.435 248.369C488.435 247.945 488.506 247.468 488.647 246.938C488.788 246.373 489.053 245.86 489.442 245.401C489.831 244.906 490.361 244.5 491.032 244.182C491.703 243.829 492.551 243.652 493.576 243.652C494.53 243.652 495.343 243.811 496.014 244.129C496.721 244.412 497.286 244.8 497.71 245.295C498.169 245.79 498.505 246.337 498.717 246.938C498.964 247.539 499.088 248.139 499.088 248.74ZM480.856 265.912C480.856 264.817 481.068 263.933 481.492 263.262C481.916 262.555 482.428 262.008 483.029 261.619C483.63 261.23 484.266 260.983 484.937 260.877C485.608 260.736 486.191 260.665 486.686 260.665C487.11 260.665 487.463 260.7 487.746 260.771V263.209C487.746 263.951 487.923 264.499 488.276 264.852C488.629 265.205 489.071 265.382 489.601 265.382C490.237 265.382 490.802 265.17 491.297 264.746C491.403 265.029 491.456 265.294 491.456 265.541C491.491 265.753 491.509 266 491.509 266.283C491.509 266.707 491.421 267.202 491.244 267.767C491.103 268.297 490.82 268.809 490.396 269.304C490.007 269.763 489.477 270.17 488.806 270.523C488.17 270.841 487.357 271 486.368 271C485.414 271 484.584 270.859 483.877 270.576C483.206 270.258 482.64 269.852 482.181 269.357C481.757 268.862 481.421 268.315 481.174 267.714C480.962 267.113 480.856 266.513 480.856 265.912ZM520.934 262.891C520.934 263.244 520.934 263.615 520.934 264.004C520.969 264.393 521.04 264.746 521.146 265.064C521.287 265.382 521.481 265.647 521.729 265.859C521.976 266.071 522.329 266.177 522.789 266.177C523.354 266.177 523.778 266.036 524.061 265.753C524.379 265.435 524.608 265.17 524.75 264.958C524.82 265.17 524.873 265.488 524.909 265.912C524.979 266.336 525.015 266.689 525.015 266.972C525.015 268.315 524.555 269.322 523.637 269.993C522.753 270.664 521.57 271 520.086 271C518.142 271 516.605 270.399 515.475 269.198C514.379 267.997 513.832 266.018 513.832 263.262V238.935C513.832 238.052 513.938 237.221 514.15 236.444C514.397 235.667 514.768 234.995 515.263 234.43C515.757 233.829 516.393 233.37 517.171 233.052C517.983 232.699 518.955 232.522 520.086 232.522C520.227 232.522 520.368 232.54 520.51 232.575C520.651 232.575 520.792 232.575 520.934 232.575V262.891ZM521.835 244.341H521.941C522.011 244.341 522.17 244.341 522.418 244.341C522.665 244.306 523.054 244.288 523.584 244.288H525.969C526.004 244.394 526.022 244.659 526.022 245.083C526.022 246.426 525.704 247.486 525.068 248.263C524.432 249.005 523.354 249.376 521.835 249.376V244.341ZM536.202 262.732C536.202 263.156 536.22 263.562 536.255 263.951C536.326 264.34 536.432 264.693 536.573 265.011C536.75 265.294 536.98 265.541 537.262 265.753C537.58 265.93 538.004 266.018 538.534 266.018C538.817 266.018 539.1 265.983 539.382 265.912C539.7 265.806 539.983 265.647 540.23 265.435C540.372 265.718 540.46 266 540.495 266.283C540.531 266.53 540.548 266.795 540.548 267.078C540.548 268.209 540.071 269.145 539.117 269.887C538.163 270.629 537.015 271 535.672 271C533.552 271 531.927 270.435 530.796 269.304C529.666 268.173 529.1 266.76 529.1 265.064V250.33C529.1 249.164 529.312 248.192 529.736 247.415C530.196 246.602 530.761 245.949 531.432 245.454C532.139 244.959 532.899 244.606 533.711 244.394C534.559 244.182 535.39 244.076 536.202 244.076V262.732ZM548.286 264.746C548.286 265.983 548.057 267.007 547.597 267.82C547.173 268.597 546.608 269.233 545.901 269.728C545.23 270.187 544.47 270.523 543.622 270.735C542.774 270.912 541.962 271 541.184 271V252.344C541.184 251.92 541.149 251.514 541.078 251.125C541.043 250.736 540.937 250.401 540.76 250.118C540.619 249.8 540.389 249.553 540.071 249.376C539.789 249.164 539.382 249.058 538.852 249.058C538.57 249.058 538.269 249.111 537.951 249.217C537.669 249.288 537.404 249.429 537.156 249.641C537.015 249.358 536.927 249.093 536.891 248.846C536.856 248.563 536.838 248.281 536.838 247.998C536.838 246.867 537.315 245.931 538.269 245.189C539.223 244.447 540.372 244.076 541.714 244.076C543.834 244.076 545.46 244.624 546.59 245.719C547.721 246.779 548.286 248.316 548.286 250.33V264.746ZM119.596 317.64C119.596 318.877 119.349 319.901 118.854 320.714C118.36 321.527 117.741 322.18 116.999 322.675C116.257 323.134 115.427 323.47 114.508 323.682C113.625 323.894 112.777 324 111.964 324V292.783C111.964 290.451 112.494 288.649 113.554 287.377C114.614 286.105 116.151 285.469 118.165 285.469C119.155 285.469 120.003 285.646 120.709 285.999C121.416 286.317 121.981 286.741 122.405 287.271C122.829 287.801 123.13 288.419 123.306 289.126C123.518 289.797 123.624 290.504 123.624 291.246V291.776C123.377 291.564 123.094 291.423 122.776 291.352C122.494 291.246 122.211 291.193 121.928 291.193C121.398 291.193 120.974 291.299 120.656 291.511C120.374 291.688 120.144 291.935 119.967 292.253C119.826 292.536 119.72 292.871 119.649 293.26C119.614 293.649 119.596 294.055 119.596 294.479V317.64ZM124.26 285.575C124.437 285.575 124.578 285.575 124.684 285.575C124.826 285.54 124.985 285.522 125.161 285.522C127.317 285.522 128.977 286.105 130.143 287.271C131.309 288.437 131.892 290.31 131.892 292.889V302.376C131.892 303.542 131.716 304.567 131.362 305.45C131.044 306.333 130.603 307.093 130.037 307.729C129.507 308.33 128.854 308.789 128.076 309.107C127.334 309.425 126.539 309.584 125.691 309.584C124.596 309.584 123.695 309.407 122.988 309.054C122.282 308.701 121.716 308.241 121.292 307.676C120.904 307.075 120.621 306.404 120.444 305.662C120.303 304.92 120.232 304.178 120.232 303.436C120.727 303.719 121.292 303.86 121.928 303.86C122.458 303.86 122.865 303.772 123.147 303.595C123.465 303.383 123.695 303.136 123.836 302.853C124.013 302.535 124.119 302.182 124.154 301.793C124.225 301.404 124.26 300.998 124.26 300.574V285.575ZM134.835 297.076H135.418C137.256 297.076 138.793 297.571 140.029 298.56C141.301 299.549 141.937 301.122 141.937 303.277V324H141.619C140.807 324 139.994 323.894 139.181 323.682C138.404 323.47 137.68 323.134 137.008 322.675C136.372 322.18 135.842 321.562 135.418 320.82C135.03 320.043 134.835 319.089 134.835 317.958V297.076ZM152.378 301.74C152.378 302.729 152.184 303.524 151.795 304.125C151.407 304.726 150.93 305.203 150.364 305.556C149.834 305.874 149.251 306.086 148.615 306.192C147.979 306.298 147.432 306.351 146.972 306.351C146.478 306.351 146.054 306.316 145.7 306.245V304.337C145.7 303.524 145.559 303.012 145.276 302.8C145.029 302.588 144.711 302.482 144.322 302.482C143.969 302.482 143.686 302.553 143.474 302.694C143.298 302.835 143.086 303.047 142.838 303.33C142.732 303.047 142.662 302.765 142.626 302.482C142.626 302.164 142.626 301.864 142.626 301.581C142.626 301.122 142.697 300.627 142.838 300.097C143.015 299.567 143.28 299.09 143.633 298.666C144.022 298.207 144.517 297.836 145.117 297.553C145.718 297.235 146.478 297.076 147.396 297.076C149.092 297.076 150.347 297.535 151.159 298.454C151.972 299.337 152.378 300.433 152.378 301.74ZM162.175 324H161.645C160.832 324 160.037 323.912 159.26 323.735C158.482 323.523 157.776 323.187 157.14 322.728C156.539 322.233 156.044 321.597 155.656 320.82C155.267 320.043 155.073 319.089 155.073 317.958V303.701C155.073 301.758 155.532 300.168 156.451 298.931C157.405 297.694 158.942 297.076 161.062 297.076C162.475 297.076 163.641 297.447 164.56 298.189C165.478 298.896 165.938 300.044 165.938 301.634C165.938 302.164 165.867 302.553 165.726 302.8C165.231 302.376 164.701 302.164 164.136 302.164C163.358 302.164 162.828 302.429 162.546 302.959C162.298 303.489 162.175 304.054 162.175 304.655V324ZM166.892 297.129C167.068 297.094 167.245 297.076 167.422 297.076H167.952C169.86 297.076 171.344 297.571 172.404 298.56C173.464 299.514 173.994 300.892 173.994 302.694V305.609C173.994 308.012 173.393 309.796 172.192 310.962C170.99 312.128 169.524 312.711 167.793 312.711H167.422C166.079 312.64 164.984 312.199 164.136 311.386C163.323 310.538 162.917 309.531 162.917 308.365C162.917 308.188 162.917 308.029 162.917 307.888C162.952 307.747 163.023 307.535 163.129 307.252C163.411 307.535 163.659 307.747 163.871 307.888C164.083 308.029 164.436 308.1 164.931 308.1C165.743 308.1 166.273 307.817 166.521 307.252C166.768 306.651 166.892 305.962 166.892 305.185V297.129ZM173.782 318.859C173.782 319.848 173.605 320.679 173.252 321.35C172.934 321.986 172.51 322.516 171.98 322.94C171.45 323.329 170.867 323.611 170.231 323.788C169.595 323.929 168.976 324 168.376 324C166.574 324 165.302 323.558 164.56 322.675C163.818 321.792 163.447 320.802 163.447 319.707C163.447 319.53 163.447 319.318 163.447 319.071C163.482 318.824 163.57 318.559 163.712 318.276C164.171 318.7 164.701 318.912 165.302 318.912C166.15 318.841 166.644 318.559 166.786 318.064C166.927 317.569 166.998 316.951 166.998 316.209V314.248C167.528 314.107 168.164 314.036 168.906 314.036C169.824 314.036 170.584 314.177 171.185 314.46C171.821 314.743 172.333 315.114 172.722 315.573C173.11 316.032 173.375 316.562 173.517 317.163C173.693 317.728 173.782 318.294 173.782 318.859ZM190.603 297.076C191.38 297.076 192.193 297.182 193.041 297.394C193.889 297.606 194.648 297.959 195.32 298.454C196.026 298.949 196.592 299.602 197.016 300.415C197.475 301.192 197.705 302.164 197.705 303.33V317.534C197.705 319.548 197.175 321.138 196.115 322.304C195.055 323.435 193.518 324 191.504 324C190.832 324 190.179 323.912 189.543 323.735C188.942 323.523 188.394 323.258 187.9 322.94C187.44 322.587 187.069 322.18 186.787 321.721C186.504 321.226 186.363 320.696 186.363 320.131C186.363 319.919 186.363 319.654 186.363 319.336C186.398 319.018 186.469 318.718 186.575 318.435C187.069 318.894 187.723 319.124 188.536 319.124C189.454 319.124 190.02 318.788 190.232 318.117C190.479 317.41 190.603 316.615 190.603 315.732V297.076ZM178.519 303.33C178.519 301.316 179.084 299.761 180.215 298.666C181.345 297.571 182.971 297.023 185.091 297.023C186.469 297.023 187.599 297.412 188.483 298.189C189.366 298.966 189.808 299.885 189.808 300.945C189.808 301.263 189.79 301.581 189.755 301.899C189.755 302.182 189.684 302.464 189.543 302.747C189.048 302.288 188.518 302.058 187.953 302.058C187.423 302.058 186.999 302.164 186.681 302.376C186.398 302.553 186.168 302.8 185.992 303.118C185.85 303.401 185.744 303.736 185.674 304.125C185.638 304.514 185.621 304.92 185.621 305.344V337.197C184.808 337.197 183.978 337.091 183.13 336.879C182.317 336.702 181.557 336.367 180.851 335.872C180.179 335.413 179.614 334.777 179.155 333.964C178.731 333.187 178.519 332.18 178.519 330.943V303.33ZM214.567 305.344C214.567 304.92 214.531 304.514 214.461 304.125C214.425 303.736 214.319 303.401 214.143 303.118C214.001 302.8 213.772 302.553 213.454 302.376C213.171 302.164 212.765 302.058 212.235 302.058C211.952 302.058 211.652 302.111 211.334 302.217C211.051 302.288 210.786 302.429 210.539 302.641C210.397 302.358 210.309 302.093 210.274 301.846C210.238 301.563 210.221 301.281 210.221 300.998C210.221 299.867 210.698 298.931 211.652 298.189C212.606 297.447 213.754 297.076 215.097 297.076C217.217 297.076 218.842 297.624 219.973 298.719C221.103 299.779 221.669 301.316 221.669 303.33V324C220.856 324 220.026 323.912 219.178 323.735C218.365 323.523 217.605 323.187 216.899 322.728C216.227 322.233 215.662 321.597 215.203 320.82C214.779 320.007 214.567 318.983 214.567 317.746V305.344ZM209.585 315.732C209.585 316.156 209.602 316.562 209.638 316.951C209.708 317.34 209.814 317.693 209.956 318.011C210.132 318.294 210.362 318.541 210.645 318.753C210.963 318.93 211.387 319.018 211.917 319.018C212.199 319.018 212.482 318.983 212.765 318.912C213.083 318.806 213.365 318.647 213.613 318.435C213.754 318.718 213.842 319 213.878 319.283C213.913 319.53 213.931 319.795 213.931 320.078C213.931 321.209 213.454 322.145 212.5 322.887C211.546 323.629 210.397 324 209.055 324C206.935 324 205.309 323.435 204.179 322.304C203.048 321.173 202.483 319.76 202.483 318.064V303.33C202.483 302.164 202.695 301.192 203.119 300.415C203.578 299.602 204.143 298.949 204.815 298.454C205.521 297.959 206.281 297.606 207.094 297.394C207.942 297.182 208.772 297.076 209.585 297.076V315.732ZM226.447 297.076H227.03C228.867 297.076 230.404 297.571 231.641 298.56C232.913 299.549 233.549 301.122 233.549 303.277V324H233.231C232.418 324 231.605 323.894 230.793 323.682C230.015 323.47 229.291 323.134 228.62 322.675C227.984 322.18 227.454 321.562 227.03 320.82C226.641 320.043 226.447 319.089 226.447 317.958V297.076ZM243.99 301.74C243.99 302.729 243.795 303.524 243.407 304.125C243.018 304.726 242.541 305.203 241.976 305.556C241.446 305.874 240.863 306.086 240.227 306.192C239.591 306.298 239.043 306.351 238.584 306.351C238.089 306.351 237.665 306.316 237.312 306.245V304.337C237.312 303.524 237.17 303.012 236.888 302.8C236.64 302.588 236.322 302.482 235.934 302.482C235.58 302.482 235.298 302.553 235.086 302.694C234.909 302.835 234.697 303.047 234.45 303.33C234.344 303.047 234.273 302.765 234.238 302.482C234.238 302.164 234.238 301.864 234.238 301.581C234.238 301.122 234.308 300.627 234.45 300.097C234.626 299.567 234.891 299.09 235.245 298.666C235.633 298.207 236.128 297.836 236.729 297.553C237.329 297.235 238.089 297.076 239.008 297.076C240.704 297.076 241.958 297.535 242.771 298.454C243.583 299.337 243.99 300.433 243.99 301.74ZM253.786 324H253.256C252.443 324 251.648 323.912 250.871 323.735C250.093 323.523 249.387 323.187 248.751 322.728C248.15 322.233 247.655 321.597 247.267 320.82C246.878 320.043 246.684 319.089 246.684 317.958V303.701C246.684 301.758 247.143 300.168 248.062 298.931C249.016 297.694 250.553 297.076 252.673 297.076C254.086 297.076 255.252 297.447 256.171 298.189C257.089 298.896 257.549 300.044 257.549 301.634C257.549 302.164 257.478 302.553 257.337 302.8C256.842 302.376 256.312 302.164 255.747 302.164C254.969 302.164 254.439 302.429 254.157 302.959C253.909 303.489 253.786 304.054 253.786 304.655V324ZM258.503 297.129C258.679 297.094 258.856 297.076 259.033 297.076H259.563C261.471 297.076 262.955 297.571 264.015 298.56C265.075 299.514 265.605 300.892 265.605 302.694V305.609C265.605 308.012 265.004 309.796 263.803 310.962C262.601 312.128 261.135 312.711 259.404 312.711H259.033C257.69 312.64 256.595 312.199 255.747 311.386C254.934 310.538 254.528 309.531 254.528 308.365C254.528 308.188 254.528 308.029 254.528 307.888C254.563 307.747 254.634 307.535 254.74 307.252C255.022 307.535 255.27 307.747 255.482 307.888C255.694 308.029 256.047 308.1 256.542 308.1C257.354 308.1 257.884 307.817 258.132 307.252C258.379 306.651 258.503 305.962 258.503 305.185V297.129ZM265.393 318.859C265.393 319.848 265.216 320.679 264.863 321.35C264.545 321.986 264.121 322.516 263.591 322.94C263.061 323.329 262.478 323.611 261.842 323.788C261.206 323.929 260.587 324 259.987 324C258.185 324 256.913 323.558 256.171 322.675C255.429 321.792 255.058 320.802 255.058 319.707C255.058 319.53 255.058 319.318 255.058 319.071C255.093 318.824 255.181 318.559 255.323 318.276C255.782 318.7 256.312 318.912 256.913 318.912C257.761 318.841 258.255 318.559 258.397 318.064C258.538 317.569 258.609 316.951 258.609 316.209V314.248C259.139 314.107 259.775 314.036 260.517 314.036C261.435 314.036 262.195 314.177 262.796 314.46C263.432 314.743 263.944 315.114 264.333 315.573C264.721 316.032 264.986 316.562 265.128 317.163C265.304 317.728 265.393 318.294 265.393 318.859ZM288.433 307.04H287.797C286.984 307.04 286.172 306.952 285.359 306.775C284.546 306.598 283.787 306.28 283.08 305.821C282.409 305.326 281.861 304.673 281.437 303.86C281.013 303.012 280.801 301.952 280.801 300.68V291.882C280.801 290.61 281.013 289.568 281.437 288.755C281.861 287.907 282.409 287.253 283.08 286.794C283.787 286.299 284.546 285.964 285.359 285.787C286.172 285.61 286.984 285.522 287.797 285.522H288.433V307.04ZM280.43 318.912C280.43 317.817 280.642 316.933 281.066 316.262C281.49 315.555 282.002 315.008 282.603 314.619C283.204 314.23 283.84 313.983 284.511 313.877C285.182 313.736 285.765 313.665 286.26 313.665C286.684 313.665 287.037 313.7 287.32 313.771V316.421C287.32 317.728 287.832 318.382 288.857 318.382C289.175 318.382 289.44 318.329 289.652 318.223C289.864 318.117 290.094 317.958 290.341 317.746C290.447 318.029 290.5 318.382 290.5 318.806C290.535 319.23 290.553 319.566 290.553 319.813C290.553 320.237 290.482 320.696 290.341 321.191C290.2 321.686 289.952 322.145 289.599 322.569C289.281 322.958 288.822 323.293 288.221 323.576C287.62 323.859 286.861 324 285.942 324C284.988 324 284.158 323.841 283.451 323.523C282.78 323.205 282.214 322.816 281.755 322.357C281.331 321.862 280.995 321.315 280.748 320.714C280.536 320.113 280.43 319.513 280.43 318.912ZM291.401 302.535H292.037C292.814 302.535 293.609 302.623 294.422 302.8C295.27 302.977 296.03 303.312 296.701 303.807C297.408 304.266 297.973 304.92 298.397 305.768C298.821 306.581 299.033 307.623 299.033 308.895V317.693C299.033 318.965 298.821 320.025 298.397 320.873C297.973 321.686 297.408 322.339 296.701 322.834C296.03 323.293 295.27 323.611 294.422 323.788C293.609 323.965 292.814 324.053 292.037 324.053H291.401V302.535ZM299.298 290.61C299.298 291.741 299.086 292.642 298.662 293.313C298.238 293.984 297.726 294.514 297.125 294.903C296.524 295.292 295.888 295.557 295.217 295.698C294.546 295.804 293.963 295.857 293.468 295.857C293.044 295.857 292.691 295.822 292.408 295.751V293.101C292.408 291.794 291.896 291.14 290.871 291.14C290.553 291.14 290.288 291.193 290.076 291.299C289.864 291.405 289.634 291.564 289.387 291.776C289.281 291.493 289.21 291.14 289.175 290.716C289.175 290.292 289.175 289.956 289.175 289.709C289.175 289.285 289.246 288.826 289.387 288.331C289.528 287.836 289.758 287.395 290.076 287.006C290.429 286.582 290.906 286.229 291.507 285.946C292.108 285.663 292.867 285.522 293.786 285.522C294.74 285.522 295.553 285.681 296.224 285.999C296.931 286.317 297.496 286.723 297.92 287.218C298.379 287.677 298.715 288.225 298.927 288.861C299.174 289.462 299.298 290.045 299.298 290.61ZM311.185 315.891C311.185 316.244 311.185 316.615 311.185 317.004C311.221 317.393 311.291 317.746 311.397 318.064C311.539 318.382 311.733 318.647 311.98 318.859C312.228 319.071 312.581 319.177 313.04 319.177C313.606 319.177 314.03 319.036 314.312 318.753C314.63 318.435 314.86 318.17 315.001 317.958C315.072 318.17 315.125 318.488 315.16 318.912C315.231 319.336 315.266 319.689 315.266 319.972C315.266 321.315 314.807 322.322 313.888 322.993C313.005 323.664 311.821 324 310.337 324C308.394 324 306.857 323.399 305.726 322.198C304.631 320.997 304.083 319.018 304.083 316.262V291.935C304.083 291.052 304.189 290.221 304.401 289.444C304.649 288.667 305.02 287.995 305.514 287.43C306.009 286.829 306.645 286.37 307.422 286.052C308.235 285.699 309.207 285.522 310.337 285.522C310.479 285.522 310.62 285.54 310.761 285.575C310.903 285.575 311.044 285.575 311.185 285.575V315.891ZM312.086 297.341H312.192C312.263 297.341 312.422 297.341 312.669 297.341C312.917 297.306 313.305 297.288 313.835 297.288H316.22C316.256 297.394 316.273 297.659 316.273 298.083C316.273 299.426 315.955 300.486 315.319 301.263C314.683 302.005 313.606 302.376 312.086 302.376V297.341ZM326.454 315.626C326.454 316.05 326.471 316.456 326.507 316.845C326.577 317.234 326.683 317.587 326.825 317.905C327.001 318.188 327.231 318.435 327.514 318.647C327.832 318.824 328.256 318.912 328.786 318.912C329.068 318.912 329.351 318.877 329.634 318.806C329.952 318.7 330.234 318.541 330.482 318.329C330.623 318.612 330.711 318.894 330.747 319.177C330.782 319.424 330.8 319.689 330.8 319.972C330.8 321.103 330.34 322.057 329.422 322.834C328.503 323.611 327.249 324 325.659 324C323.751 324 322.214 323.435 321.048 322.304C319.917 321.173 319.352 319.442 319.352 317.11V297.129H319.67C321.79 297.129 323.45 297.641 324.652 298.666C325.853 299.655 326.454 301.263 326.454 303.489V315.626ZM338.538 323.894H337.955C336.117 323.894 334.563 323.417 333.291 322.463C332.054 321.474 331.436 319.884 331.436 317.693V297.129H331.754C332.531 297.129 333.326 297.235 334.139 297.447C334.951 297.659 335.676 298.012 336.312 298.507C336.983 298.966 337.513 299.585 337.902 300.362C338.326 301.139 338.538 302.076 338.538 303.171V323.894ZM355.4 285.522H356.036C356.919 285.522 357.749 285.628 358.527 285.84C359.339 286.052 360.028 286.405 360.594 286.9C361.194 287.395 361.654 288.084 361.972 288.967C362.325 289.815 362.502 290.893 362.502 292.2V318.276C362.502 319.124 362.325 319.901 361.972 320.608C361.654 321.315 361.194 321.915 360.594 322.41C360.028 322.905 359.339 323.293 358.527 323.576C357.749 323.859 356.901 324 355.983 324H355.4V285.522ZM343.316 302.906C343.316 301.21 343.881 299.814 345.012 298.719C346.142 297.624 347.768 297.076 349.888 297.076C351.23 297.076 352.379 297.447 353.333 298.189C354.287 298.931 354.764 299.867 354.764 300.998C354.764 301.281 354.746 301.563 354.711 301.846C354.675 302.093 354.587 302.358 354.446 302.641C353.951 302.252 353.386 302.058 352.75 302.058H352.538C351.725 302.129 351.16 302.429 350.842 302.959C350.559 303.489 350.418 304.143 350.418 304.92V315.573C350.418 316.739 350.63 317.605 351.054 318.17C351.478 318.735 352.043 319.018 352.75 319.018C353.386 319.018 353.933 318.824 354.393 318.435C354.64 318.93 354.764 319.477 354.764 320.078C354.764 321.209 354.287 322.145 353.333 322.887C352.379 323.629 351.23 324 349.888 324C347.768 324 346.142 323.452 345.012 322.357C343.881 321.226 343.316 319.442 343.316 317.004V302.906ZM374.382 324H373.852C373.039 324 372.244 323.912 371.467 323.735C370.689 323.523 369.983 323.187 369.347 322.728C368.746 322.233 368.251 321.597 367.863 320.82C367.474 320.043 367.28 319.089 367.28 317.958V303.701C367.28 301.758 367.739 300.168 368.658 298.931C369.612 297.694 371.149 297.076 373.269 297.076C374.682 297.076 375.848 297.447 376.767 298.189C377.685 298.896 378.145 300.044 378.145 301.634C378.145 302.164 378.074 302.553 377.933 302.8C377.438 302.376 376.908 302.164 376.343 302.164C375.565 302.164 375.035 302.429 374.753 302.959C374.505 303.489 374.382 304.054 374.382 304.655V324ZM379.099 297.129C379.275 297.094 379.452 297.076 379.629 297.076H380.159C382.067 297.076 383.551 297.571 384.611 298.56C385.671 299.514 386.201 300.892 386.201 302.694V305.609C386.201 308.012 385.6 309.796 384.399 310.962C383.197 312.128 381.731 312.711 380 312.711H379.629C378.286 312.64 377.191 312.199 376.343 311.386C375.53 310.538 375.124 309.531 375.124 308.365C375.124 308.188 375.124 308.029 375.124 307.888C375.159 307.747 375.23 307.535 375.336 307.252C375.618 307.535 375.866 307.747 376.078 307.888C376.29 308.029 376.643 308.1 377.138 308.1C377.95 308.1 378.48 307.817 378.728 307.252C378.975 306.651 379.099 305.962 379.099 305.185V297.129ZM385.989 318.859C385.989 319.848 385.812 320.679 385.459 321.35C385.141 321.986 384.717 322.516 384.187 322.94C383.657 323.329 383.074 323.611 382.438 323.788C381.802 323.929 381.183 324 380.583 324C378.781 324 377.509 323.558 376.767 322.675C376.025 321.792 375.654 320.802 375.654 319.707C375.654 319.53 375.654 319.318 375.654 319.071C375.689 318.824 375.777 318.559 375.919 318.276C376.378 318.7 376.908 318.912 377.509 318.912C378.357 318.841 378.851 318.559 378.993 318.064C379.134 317.569 379.205 316.951 379.205 316.209V314.248C379.735 314.107 380.371 314.036 381.113 314.036C382.031 314.036 382.791 314.177 383.392 314.46C384.028 314.743 384.54 315.114 384.929 315.573C385.317 316.032 385.582 316.562 385.724 317.163C385.9 317.728 385.989 318.294 385.989 318.859ZM402.81 305.344C402.81 304.92 402.774 304.514 402.704 304.125C402.668 303.736 402.562 303.401 402.386 303.118C402.244 302.8 402.015 302.553 401.697 302.376C401.414 302.164 401.008 302.058 400.478 302.058C400.195 302.058 399.895 302.111 399.577 302.217C399.294 302.288 399.029 302.429 398.782 302.641C398.64 302.358 398.552 302.093 398.517 301.846C398.481 301.563 398.464 301.281 398.464 300.998C398.464 299.867 398.976 298.931 400.001 298.189C401.025 297.447 402.333 297.076 403.923 297.076C405.831 297.076 407.297 297.659 408.322 298.825C409.382 299.956 409.912 301.634 409.912 303.86V324H409.594C407.474 324 405.813 323.505 404.612 322.516C403.41 321.491 402.81 319.866 402.81 317.64V305.344ZM390.726 297.076H391.309C393.146 297.076 394.683 297.571 395.92 298.56C397.192 299.549 397.828 301.122 397.828 303.277V324H397.51C396.697 324 395.884 323.894 395.072 323.682C394.294 323.47 393.57 323.134 392.899 322.675C392.263 322.18 391.733 321.562 391.309 320.82C390.92 320.043 390.726 319.089 390.726 317.958V297.076ZM421.792 315.891C421.792 316.244 421.792 316.615 421.792 317.004C421.827 317.393 421.898 317.746 422.004 318.064C422.145 318.382 422.339 318.647 422.587 318.859C422.834 319.071 423.187 319.177 423.647 319.177C424.212 319.177 424.636 319.036 424.919 318.753C425.237 318.435 425.466 318.17 425.608 317.958C425.678 318.17 425.731 318.488 425.767 318.912C425.837 319.336 425.873 319.689 425.873 319.972C425.873 321.315 425.413 322.322 424.495 322.993C423.611 323.664 422.428 324 420.944 324C419 324 417.463 323.399 416.333 322.198C415.237 320.997 414.69 319.018 414.69 316.262V291.935C414.69 291.052 414.796 290.221 415.008 289.444C415.255 288.667 415.626 287.995 416.121 287.43C416.615 286.829 417.251 286.37 418.029 286.052C418.841 285.699 419.813 285.522 420.944 285.522C421.085 285.522 421.226 285.54 421.368 285.575C421.509 285.575 421.65 285.575 421.792 285.575V315.891ZM422.693 297.341H422.799C422.869 297.341 423.028 297.341 423.276 297.341C423.523 297.306 423.912 297.288 424.442 297.288H426.827C426.862 297.394 426.88 297.659 426.88 298.083C426.88 299.426 426.562 300.486 425.926 301.263C425.29 302.005 424.212 302.376 422.693 302.376V297.341ZM436.53 310.75H436.053C435.241 310.75 434.428 310.662 433.615 310.485C432.838 310.273 432.131 309.937 431.495 309.478C430.895 308.983 430.4 308.347 430.011 307.57C429.623 306.793 429.428 305.839 429.428 304.708V303.33C429.428 302.058 429.64 301.016 430.064 300.203C430.488 299.39 431.036 298.754 431.707 298.295C432.379 297.836 433.138 297.518 433.986 297.341C434.834 297.164 435.682 297.076 436.53 297.076V310.75ZM441.035 310.326H441.512C442.325 310.326 443.12 310.432 443.897 310.644C444.71 310.821 445.417 311.156 446.017 311.651C446.653 312.11 447.166 312.729 447.554 313.506C447.943 314.283 448.137 315.237 448.137 316.368V317.746C448.137 319.018 447.925 320.06 447.501 320.873C447.077 321.686 446.53 322.322 445.858 322.781C445.187 323.24 444.427 323.558 443.579 323.735C442.731 323.912 441.883 324 441.035 324V310.326ZM447.925 301.74C447.925 302.871 447.713 303.772 447.289 304.443C446.865 305.114 446.353 305.644 445.752 306.033C445.152 306.422 444.516 306.687 443.844 306.828C443.173 306.934 442.59 306.987 442.095 306.987C441.671 306.987 441.318 306.952 441.035 306.881V304.443C441.035 303.701 440.859 303.153 440.505 302.8C440.152 302.447 439.71 302.27 439.18 302.27C438.509 302.27 437.944 302.482 437.484 302.906C437.378 302.623 437.308 302.376 437.272 302.164C437.272 301.917 437.272 301.652 437.272 301.369C437.272 300.945 437.343 300.468 437.484 299.938C437.626 299.373 437.891 298.86 438.279 298.401C438.668 297.906 439.198 297.5 439.869 297.182C440.541 296.829 441.389 296.652 442.413 296.652C443.367 296.652 444.18 296.811 444.851 297.129C445.558 297.412 446.123 297.8 446.547 298.295C447.007 298.79 447.342 299.337 447.554 299.938C447.802 300.539 447.925 301.139 447.925 301.74ZM429.693 318.912C429.693 317.817 429.905 316.933 430.329 316.262C430.753 315.555 431.266 315.008 431.866 314.619C432.467 314.23 433.103 313.983 433.774 313.877C434.446 313.736 435.029 313.665 435.523 313.665C435.947 313.665 436.301 313.7 436.583 313.771V316.209C436.583 316.951 436.76 317.499 437.113 317.852C437.467 318.205 437.908 318.382 438.438 318.382C439.074 318.382 439.64 318.17 440.134 317.746C440.24 318.029 440.293 318.294 440.293 318.541C440.329 318.753 440.346 319 440.346 319.283C440.346 319.707 440.258 320.202 440.081 320.767C439.94 321.297 439.657 321.809 439.233 322.304C438.845 322.763 438.315 323.17 437.643 323.523C437.007 323.841 436.195 324 435.205 324C434.251 324 433.421 323.859 432.714 323.576C432.043 323.258 431.478 322.852 431.018 322.357C430.594 321.862 430.259 321.315 430.011 320.714C429.799 320.113 429.693 319.513 429.693 318.912ZM470.831 297.288H475.548C475.548 298.101 475.478 298.843 475.336 299.514C475.23 300.185 475.001 300.786 474.647 301.316C474.329 301.811 473.888 302.199 473.322 302.482C472.757 302.765 472.033 302.906 471.149 302.906H470.831V297.288ZM462.669 296.97C462.669 295.698 462.828 294.638 463.146 293.79C463.5 292.942 463.959 292.271 464.524 291.776C465.125 291.246 465.832 290.875 466.644 290.663C467.457 290.416 468.323 290.292 469.241 290.292H469.771V318.276C469.771 319.124 469.595 319.901 469.241 320.608C468.923 321.315 468.464 321.915 467.863 322.41C467.298 322.905 466.609 323.293 465.796 323.576C465.019 323.859 464.171 324 463.252 324H462.669V296.97ZM477.827 288.437C477.827 289.108 477.721 289.762 477.509 290.398C477.333 290.999 477.05 291.529 476.661 291.988C476.273 292.447 475.76 292.818 475.124 293.101C474.488 293.384 473.746 293.525 472.898 293.525C472.156 293.525 471.52 293.454 470.99 293.313V291.511C470.99 290.734 470.849 290.062 470.566 289.497C470.319 288.932 469.824 288.649 469.082 288.649C468.8 288.649 468.57 288.684 468.393 288.755C468.217 288.826 467.987 288.949 467.704 289.126C467.634 288.914 467.581 288.684 467.545 288.437C467.545 288.19 467.545 287.819 467.545 287.324C467.581 286.935 467.687 286.529 467.863 286.105C468.075 285.646 468.376 285.239 468.764 284.886C469.153 284.497 469.648 284.179 470.248 283.932C470.884 283.685 471.644 283.561 472.527 283.561C474.047 283.561 475.301 284.02 476.29 284.939C477.315 285.858 477.827 287.024 477.827 288.437ZM485.971 315.732C485.971 316.156 485.989 316.562 486.024 316.951C486.095 317.34 486.201 317.693 486.342 318.011C486.519 318.294 486.749 318.541 487.031 318.753C487.349 318.93 487.773 319.018 488.303 319.018C488.586 319.018 488.869 318.983 489.151 318.912C489.469 318.806 489.752 318.647 489.999 318.435C490.141 318.718 490.229 319 490.264 319.283C490.3 319.53 490.317 319.795 490.317 320.078C490.317 321.209 489.84 322.145 488.886 322.887C487.932 323.629 486.784 324 485.441 324C483.321 324 481.696 323.435 480.565 322.304C479.435 321.173 478.869 319.76 478.869 318.064V303.33C478.869 302.164 479.081 301.192 479.505 300.415C479.965 299.602 480.53 298.949 481.201 298.454C481.908 297.959 482.668 297.606 483.48 297.394C484.328 297.182 485.159 297.076 485.971 297.076V315.732ZM498.055 317.746C498.055 318.983 497.826 320.007 497.366 320.82C496.942 321.597 496.377 322.233 495.67 322.728C494.999 323.187 494.239 323.523 493.391 323.735C492.543 323.912 491.731 324 490.953 324V305.344C490.953 304.92 490.918 304.514 490.847 304.125C490.812 303.736 490.706 303.401 490.529 303.118C490.388 302.8 490.158 302.553 489.84 302.376C489.558 302.164 489.151 302.058 488.621 302.058C488.339 302.058 488.038 302.111 487.72 302.217C487.438 302.288 487.173 302.429 486.925 302.641C486.784 302.358 486.696 302.093 486.66 301.846C486.625 301.563 486.607 301.281 486.607 300.998C486.607 299.867 487.084 298.931 488.038 298.189C488.992 297.447 490.141 297.076 491.483 297.076C493.603 297.076 495.229 297.624 496.359 298.719C497.49 299.779 498.055 301.316 498.055 303.33V317.746ZM502.833 297.076H503.416C505.254 297.076 506.791 297.571 508.027 298.56C509.299 299.549 509.935 301.122 509.935 303.277V324H509.617C508.805 324 507.992 323.894 507.179 323.682C506.402 323.47 505.678 323.134 505.006 322.675C504.37 322.18 503.84 321.562 503.416 320.82C503.028 320.043 502.833 319.089 502.833 317.958V297.076ZM520.376 301.74C520.376 302.729 520.182 303.524 519.793 304.125C519.405 304.726 518.928 305.203 518.362 305.556C517.832 305.874 517.249 306.086 516.613 306.192C515.977 306.298 515.43 306.351 514.97 306.351C514.476 306.351 514.052 306.316 513.698 306.245V304.337C513.698 303.524 513.557 303.012 513.274 302.8C513.027 302.588 512.709 302.482 512.32 302.482C511.967 302.482 511.684 302.553 511.472 302.694C511.296 302.835 511.084 303.047 510.836 303.33C510.73 303.047 510.66 302.765 510.624 302.482C510.624 302.164 510.624 301.864 510.624 301.581C510.624 301.122 510.695 300.627 510.836 300.097C511.013 299.567 511.278 299.09 511.631 298.666C512.02 298.207 512.515 297.836 513.115 297.553C513.716 297.235 514.476 297.076 515.394 297.076C517.09 297.076 518.345 297.535 519.157 298.454C519.97 299.337 520.376 300.433 520.376 301.74Z" fill="white"></path></svg>